<?xml version="1.0" encoding="UTF-8"?>
<svg version="1.1" xmlns="http://www.w3.org/2000/svg" width="1051" height="231">
<path d="M0 0 C3.31416634 3.34159449 3.37897383 6.05656753 3.38818359 10.64868164 C3.39344055 11.30768967 3.39869751 11.96669769 3.40411377 12.64567566 C3.41728538 14.81741241 3.40858747 16.98841245 3.3984375 19.16015625 C3.40045883 20.67183065 3.40337076 22.1835041 3.40713501 23.69517517 C3.41155428 26.8601105 3.40513941 30.02479153 3.39111328 33.18969727 C3.37400669 37.24752277 3.38387396 41.30475363 3.40183067 45.36255741 C3.4126669 48.4826659 3.40922323 51.60263318 3.4014473 54.7227459 C3.39944559 56.21908069 3.40190356 57.71542828 3.40888596 59.21174812 C3.41649976 61.30174909 3.40489957 63.39078395 3.38818359 65.48071289 C3.38579681 66.66999893 3.38341003 67.85928497 3.38095093 69.08460999 C3 72 3 72 1.59292603 73.87498474 C-0.32060514 75.22642964 -1.68633792 75.49352085 -4 75.8125 C-13.6167809 77.73585618 -22.04293436 83.26208527 -28 91 C-35.81655107 103.40023733 -38.20183671 116.4745237 -35.43359375 130.96484375 C-34.74677879 133.06843932 -33.96541071 135.01107516 -33 137 C-32.566875 138.010625 -32.13375 139.02125 -31.6875 140.0625 C-27.30201746 147.69648813 -22.26903318 152.70283483 -15.2019043 157.87963867 C-13.42164822 159.20319145 -11.71103126 160.58844199 -10 162 C-9.4212915 162.41749512 -8.84258301 162.83499023 -8.24633789 163.26513672 C-4.92473561 166.18586445 -4.07668154 168.39117974 -3.51904297 172.81860352 C-3.29561596 177.54587475 -3.35586286 182.26971072 -3.4375 187 C-3.47445727 189.44932463 -3.50199609 191.89681583 -3.49879456 194.34643555 C-3.49704416 195.86368512 -3.51773572 197.38119235 -3.56504822 198.89770508 C-3.5630642 203.89541438 -2.3667105 206.62037348 0.82603455 210.46801758 C3.99245589 214.60008282 3.42455102 220.07049088 3 225 C1.6614444 228.6438458 0.85817104 229.59134712 -2.625 231.25 C-10.46701948 230.66910967 -16.83262644 222.40754352 -22.390625 217.32421875 C-25.07020391 214.93746808 -27.82654842 212.68321874 -30.625 210.4375 C-34.71792045 207.12747292 -38.45780268 203.65711239 -42.12109375 199.8828125 C-43.92981471 198.07033121 -45.79975481 196.40790864 -47.75 194.75 C-57.07812321 186.68639644 -65.52745228 177.80865482 -73 168 C-73.52980469 167.31035156 -74.05960938 166.62070313 -74.60546875 165.91015625 C-91.83354797 141.84627079 -97.59449161 109.63386305 -93.34765625 80.73828125 C-88.35010861 53.66107585 -71.72833823 30.92867301 -49.6875 15 C-37.19060014 6.89778999 -15.16376133 -3.71775616 0 0 Z " fill="#36A950" transform="translate(94,0)"/>
<path d="M0 0 C18.49142149 4.10996461 37.31965934 14.22266806 49.9921875 28.4831543 C49.9921875 29.1431543 49.9921875 29.8031543 49.9921875 30.4831543 C50.55164063 30.67135742 51.11109375 30.85956055 51.6875 31.0534668 C55.02123643 33.12151347 56.78474038 36.12336647 58.8671875 39.3581543 C59.30627441 40.03144775 59.74536133 40.70474121 60.19775391 41.3984375 C77.61557914 68.53239398 79.58622398 97.45882348 73.18359375 128.3894043 C68.65238798 145.95034399 58.54750707 161.73005826 46.9921875 175.4831543 C46.33476562 176.27592773 45.67734375 177.06870117 45 177.88549805 C41.46711113 182.05606603 41.46711113 182.05606603 39.9921875 183.4831543 C39.3321875 183.4831543 38.6721875 183.4831543 37.9921875 183.4831543 C37.3321875 184.8031543 36.6721875 186.1231543 35.9921875 187.4831543 C35.3321875 187.4831543 34.6721875 187.4831543 33.9921875 187.4831543 C33.3321875 188.8031543 32.6721875 190.1231543 31.9921875 191.4831543 C31.3321875 191.4831543 30.6721875 191.4831543 29.9921875 191.4831543 C29.61900391 192.36293945 29.61900391 192.36293945 29.23828125 193.26049805 C27.81807554 195.79371763 26.28035004 197.19300782 24.0546875 199.0456543 C21.10912707 201.51505563 21.10912707 201.51505563 18.36328125 204.19799805 C16.9921875 205.4831543 16.9921875 205.4831543 14.9921875 205.4831543 C14.9921875 206.1431543 14.9921875 206.8031543 14.9921875 207.4831543 C13.41932066 208.89753836 11.78078754 210.23919831 10.1171875 211.5456543 C5.34727696 215.3566653 0.7779391 219.31195425 -3.71875 223.44018555 C-10.35537797 229.36331938 -10.35537797 229.36331938 -14.0703125 230.0456543 C-17.0078125 229.4831543 -17.0078125 229.4831543 -19.3828125 227.7331543 C-21.90595821 222.68686289 -21.96809029 218.00650391 -21.0078125 212.4831543 C-19.69795171 209.85565905 -18.2506408 207.70824494 -16.41796875 205.4206543 C-13.47975214 201.38365863 -13.82085697 196.77094722 -13.7265625 191.9440918 C-13.70815308 191.22202545 -13.68974365 190.49995911 -13.67077637 189.75601196 C-13.59230591 186.67529691 -13.52421725 183.59437491 -13.45556641 180.51342773 C-13.40387999 178.26103806 -13.34663714 176.00883739 -13.2890625 173.7565918 C-13.27548706 173.05762787 -13.26191162 172.35866394 -13.2479248 171.63851929 C-13.12067255 166.7088744 -13.12067255 166.7088744 -12.0078125 164.4831543 C-11.3478125 164.4831543 -10.6878125 164.4831543 -10.0078125 164.4831543 C-9.64236328 163.59756836 -9.64236328 163.59756836 -9.26953125 162.6940918 C-7.7827121 160.08870591 -6.23239922 158.87674112 -3.8203125 157.1081543 C-2.61181641 156.19163086 -2.61181641 156.19163086 -1.37890625 155.2565918 C0.04168106 154.19407674 1.46519854 153.13543777 2.89453125 152.0847168 C11.74724001 145.13905414 16.22335179 135.20171012 18.6796875 124.4831543 C20.02274686 111.58978447 17.59823079 100.12774415 9.9921875 89.4831543 C9.57839844 88.89791992 9.16460937 88.31268555 8.73828125 87.7097168 C1.8530408 78.75663185 -8.36431415 74.95396641 -19.0078125 72.4831543 C-20.87395429 70.6170125 -20.15514632 67.48180645 -20.16894531 64.99145508 C-20.17391022 64.31337799 -20.17887512 63.6353009 -20.18399048 62.93667603 C-20.19864637 60.68392945 -20.20541996 58.4312533 -20.2109375 56.1784668 C-20.21668642 54.61766558 -20.22244418 53.05686439 -20.22821045 51.49606323 C-20.23873039 48.2191332 -20.24456644 44.94222776 -20.24804688 41.6652832 C-20.25353179 37.46282568 -20.27755528 33.26069214 -20.30601883 29.05833626 C-20.32462835 25.8327438 -20.32984991 22.6072296 -20.33138275 19.38158798 C-20.33441397 17.83220525 -20.34245829 16.28282404 -20.35556793 14.7334938 C-20.37259288 12.56662512 -20.37075735 10.40055071 -20.36425781 8.23364258 C-20.36790344 6.99977814 -20.37154907 5.7659137 -20.37530518 4.49465942 C-20.0078125 1.4831543 -20.0078125 1.4831543 -18.68865967 -0.41531372 C-13.68372719 -3.69526284 -5.42104557 -1.09196513 0 0 Z " fill="#FC7218" transform="translate(123.0078125,1.516845703125)"/>
<path d="M0 0 C7.92 0 15.84 0 24 0 C24 33.66 24 67.32 24 102 C16.08 102 8.16 102 0 102 C-0.495 98.04 -0.495 98.04 -1 94 C-1.42410156 94.39832031 -1.84820313 94.79664063 -2.28515625 95.20703125 C-2.87167969 95.73683594 -3.45820312 96.26664062 -4.0625 96.8125 C-4.63097656 97.33457031 -5.19945312 97.85664063 -5.78515625 98.39453125 C-13.55160913 104.02418228 -21.86284657 103.80356389 -31 103 C-40.03637556 100.92818851 -46.31465609 95.96752308 -51.25 88.25 C-57.76807469 76.45123913 -58.83467431 63.58798722 -56.30859375 50.38671875 C-54.37722627 44.02694383 -51.51868033 38.86795031 -47 34 C-46.48695313 33.44570312 -45.97390625 32.89140625 -45.4453125 32.3203125 C-39.44097821 26.54580919 -31.75846712 23.85393431 -23.5 23.5 C-14.22861752 23.88464963 -8.0646975 27.11275208 -1 33 C-0.67 22.11 -0.34 11.22 0 0 Z M-28.875 50.75 C-32.7368018 56.65628511 -33.44996294 61.70084532 -32.53125 68.5703125 C-31.41523336 73.67444743 -29.24468508 77.48613778 -24.8125 80.4375 C-20.5936287 82.51087692 -16.60089548 82.91544404 -12 82 C-6.94785701 79.85613411 -3.23792561 77.13406464 -1 72 C1.21520934 66.15990266 0.48571001 59.54295549 -1.8984375 53.89453125 C-4.26477546 49.82476561 -7.49428259 46.8920354 -11.953125 45.3046875 C-18.6808948 44.05978521 -24.01727416 46.10347963 -28.875 50.75 Z " fill="#FC8A03" transform="translate(879,51)"/>
<path d="M0 0 C7.92 0 15.84 0 24 0 C24 33.66 24 67.32 24 102 C16.08 102 8.16 102 0 102 C-0.495 98.535 -0.495 98.535 -1 95 C-1.50789062 95.40992188 -2.01578125 95.81984375 -2.5390625 96.2421875 C-3.22742188 96.78101563 -3.91578125 97.31984375 -4.625 97.875 C-5.29789063 98.40867187 -5.97078125 98.94234375 -6.6640625 99.4921875 C-14.0173601 104.23863044 -22.60977645 103.66084513 -31 103 C-39.75350011 100.93234156 -47.06127071 94.24552873 -51.97265625 86.88671875 C-58.36433773 75.14838356 -58.61462217 60.47126097 -55.03515625 47.8515625 C-51.81052617 38.96861926 -46.45036336 31.61167039 -38.109375 26.94140625 C-29.40544045 22.98679251 -19.96527183 22.74217282 -11.04296875 26.07421875 C-7.1871109 27.82151954 -4.00648325 29.99351675 -1 33 C-0.67 22.11 -0.34 11.22 0 0 Z M-27.8125 50.375 C-31.95575785 55.34690941 -32.44372337 59.91298419 -32.31640625 66.2109375 C-31.67867363 71.83243243 -29.48011218 75.62561012 -25.375 79.4375 C-20.85905172 82.4085186 -17.32512444 82.4857377 -12 82 C-6.72677847 80.17465409 -4.20308914 77.39280797 -1 73 C1.05550007 66.83349979 1.08538284 59.47183936 -1.625 53.5 C-4.12100138 49.30217949 -7.1650342 46.831436 -11.91796875 45.4375 C-18.33672095 44.24562338 -22.83908904 46.17523074 -27.8125 50.375 Z " fill="#000000" transform="translate(579,51)"/>
<path d="M0 0 C8.24181919 6.92589848 13.15397143 15.45900143 14.5 26.125 C15.015625 36.09375 15.015625 36.09375 13.5 39.125 C-3.66 39.125 -20.82 39.125 -38.5 39.125 C-36.02428369 46.87714309 -36.02428369 46.87714309 -30.5 51.125 C-25.66048521 52.5978958 -22.16042148 52.02369023 -17.5 50.125 C-16.89575195 49.28171143 -16.29150391 48.43842285 -15.66894531 47.56958008 C-13.5 45.125 -13.5 45.125 -10.65917969 44.55737305 C-9.05671387 44.59664917 -9.05671387 44.59664917 -7.421875 44.63671875 C-5.68164062 44.66088867 -5.68164062 44.66088867 -3.90625 44.68554688 C-2.6996875 44.72744141 -1.493125 44.76933594 -0.25 44.8125 C0.97203125 44.83505859 2.1940625 44.85761719 3.453125 44.88085938 C6.46998502 44.93978242 9.48437515 45.02200735 12.5 45.125 C10.98441369 53.41204325 6.39580507 60.35817591 -0.20703125 65.5859375 C-10.63898697 72.5879657 -21.27168956 73.50615141 -33.5 72.125 C-43.38933733 70.0808991 -51.42865901 64.65457913 -57.18359375 56.375 C-63.54893228 45.49537094 -64.70333606 33.22642886 -62.29296875 20.98046875 C-59.74099983 11.79086637 -54.94162584 4.14958526 -46.875 -1.0625 C-32.4548508 -9.17782769 -13.86691106 -9.8863531 0 0 Z M-35.5 17.125 C-37.68702362 20.11393229 -38.5 21.40444454 -38.5 25.125 C-29.26 25.125 -20.02 25.125 -10.5 25.125 C-11.53299867 18.92700795 -11.95569791 17.91191841 -16.5 14.125 C-23.42810906 11.81563031 -29.93916185 12.10668265 -35.5 17.125 Z " fill="#FB8A04" transform="translate(977.5,81.875)"/>
<path d="M0 0 C6.23933115 5.61539803 9.62219445 11.71396164 11 20 C11.08305953 21.77881882 11.11785812 23.56031278 11.11352539 25.34106445 C11.11341209 26.90211662 11.11341209 26.90211662 11.11329651 28.4947052 C11.10813522 29.6063353 11.10297394 30.71796539 11.09765625 31.86328125 C11.0962413 33.01040085 11.09482635 34.15752045 11.09336853 35.33940125 C11.08777861 38.99712754 11.07522789 42.65479225 11.0625 46.3125 C11.0574837 48.79492099 11.05292102 51.27734294 11.04882812 53.75976562 C11.0386641 59.83988647 11.01908655 65.91987443 11 72 C3.08 72 -4.84 72 -13 72 C-13.03738281 68.76058594 -13.07476563 65.52117187 -13.11328125 62.18359375 C-13.15954381 59.03272906 -13.21076035 55.88198094 -13.26245117 52.73120117 C-13.29562552 50.5480055 -13.3236806 48.36472561 -13.34643555 46.18139648 C-13.38011904 43.03593183 -13.43244276 39.89123376 -13.48828125 36.74609375 C-13.49467117 35.7760289 -13.5010611 34.80596405 -13.50764465 33.8065033 C-13.62982398 28.12518002 -14.28057636 24.02268109 -17 19 C-20.07693583 16.10954513 -22.85287813 15.75875811 -26.9375 15.5625 C-31.65774714 15.71022756 -34.41964055 16.7776765 -38 20 C-39.86518605 23.01505434 -40.26327506 25.34075387 -40.31884766 28.86035156 C-40.33871735 29.82104553 -40.35858704 30.7817395 -40.37905884 31.77154541 C-40.39638565 33.31548981 -40.39638565 33.31548981 -40.4140625 34.890625 C-40.43342865 35.95037537 -40.4527948 37.01012573 -40.4727478 38.10198975 C-40.53249554 41.48457813 -40.5789102 44.86720063 -40.625 48.25 C-40.66318416 50.54428562 -40.70223615 52.83855697 -40.7421875 55.1328125 C-40.8398255 60.75513382 -40.91943347 66.37730435 -41 72 C-49.25 72 -57.5 72 -66 72 C-66 46.59 -66 21.18 -66 -5 C-57.75 -5 -49.5 -5 -41 -5 C-40.67 -2.69 -40.34 -0.38 -40 2 C-39.45472656 1.59007813 -38.90945313 1.18015625 -38.34765625 0.7578125 C-26.51710947 -7.69546708 -12.27664087 -8.60214456 0 0 Z " fill="#FC8A04" transform="translate(800,81)"/>
<path d="M0 0 C7.40873475 6.82280669 12.07463061 15.58342875 12.65625 25.6953125 C12.67958363 27.27066108 12.68046723 28.84648455 12.66015625 30.421875 C12.65258301 31.25114502 12.64500977 32.08041504 12.63720703 32.93481445 C12.36001282 43.2891309 9.20179043 51.35627569 2.22265625 59.046875 C1.7328125 59.59085937 1.24296875 60.13484375 0.73828125 60.6953125 C-6.93728209 68.18088664 -16.92527931 70.52925506 -27.33984375 70.609375 C-39.88690223 70.38927286 -49.85335536 67.24128728 -58.77734375 58.046875 C-65.9433464 49.04770888 -69.02963436 37.45663389 -67.77734375 26.046875 C-65.99330444 14.86689531 -61.75948911 5.70183093 -52.84375 -1.48828125 C-37.0415733 -12.69020235 -15.33017398 -11.66588849 0 0 Z M-39.02734375 17.421875 C-43.22862485 23.72379666 -43.54635098 29.63556785 -42.77734375 37.046875 C-41.4965839 41.5513656 -39.52955918 44.33047935 -36.15234375 47.546875 C-31.56737184 49.58464029 -27.71757605 49.83538113 -22.77734375 49.046875 C-17.90088085 46.69894842 -15.37396761 43.75926646 -12.77734375 39.046875 C-10.64720769 32.12393281 -11.43249441 25.39009526 -14.77734375 19.046875 C-18.56821608 14.45792429 -21.80680156 12.36289013 -27.71484375 11.734375 C-32.59116693 12.231959 -35.66543708 13.87319574 -39.02734375 17.421875 Z " fill="#000000" transform="translate(415.77734375,83.953125)"/>
<path d="M0 0 C7.69426274 6.05909191 12.55907033 13.57126971 14.0625 23.3125 C15.17486168 35.80471351 14.38105248 46.55706068 6.9375 57.0625 C0.1880032 65.09281815 -8.39947864 70.5631856 -18.94042969 71.48828125 C-31.98043308 72.2957118 -43.63367813 71.05921854 -53.96875 62.296875 C-62.26219796 53.93760602 -65.80880274 43.7493593 -66.1875 32.125 C-66.04018114 21.25286847 -62.49145682 11.31491296 -55.05078125 3.2734375 C-39.78684541 -10.82096298 -17.08504524 -11.58268967 0 0 Z M-37.75 19.25 C-41.8671835 25.0140569 -41.56529168 31.4156337 -40.9375 38.3125 C-39.66612444 42.81680199 -37.68650786 45.59915918 -34.3125 48.8125 C-29.72752809 50.85026529 -25.8777323 51.10100613 -20.9375 50.3125 C-16.07688998 47.97220629 -13.31073127 45.14686 -10.9375 40.3125 C-9.33108865 33.22668557 -9.53685454 26.81296459 -12.9375 20.3125 C-16.67449373 15.69042881 -19.98508018 13.62658721 -25.875 13 C-30.97526537 13.52043524 -34.39651602 15.44360295 -37.75 19.25 Z " fill="#000000" transform="translate(500.9375,82.6875)"/>
<path d="M0 0 C21.12 0 42.24 0 64 0 C64 6.27 64 12.54 64 19 C51.13 19 38.26 19 25 19 C25 25.27 25 31.54 25 38 C34.57 38 44.14 38 54 38 C54 44.6 54 51.2 54 58 C44.43 58 34.86 58 25 58 C25 70.54 25 83.08 25 96 C16.75 96 8.5 96 0 96 C0 64.32 0 32.64 0 0 Z " fill="#FB8A05" transform="translate(619,57)"/>
<path d="M0 0 C21.12 0 42.24 0 64 0 C64 6.27 64 12.54 64 19 C50.8 19 37.6 19 24 19 C24 25.27 24 31.54 24 38 C26.08183594 37.98839844 28.16367187 37.97679687 30.30859375 37.96484375 C32.31746298 37.95789265 34.32633251 37.95097611 36.33520508 37.94506836 C37.73495228 37.9400292 39.1346942 37.93319784 40.53442383 37.92456055 C42.54245777 37.9124768 44.55052957 37.90730193 46.55859375 37.90234375 C48.37315063 37.89448853 48.37315063 37.89448853 50.22436523 37.88647461 C53 38 53 38 54 39 C54.08651611 40.41570123 54.10704904 41.835595 54.09765625 43.25390625 C54.09515869 44.0229126 54.09266113 44.79191895 54.09008789 45.58422852 C54.08098389 46.56705811 54.07187988 47.5498877 54.0625 48.5625 C54.041875 51.676875 54.02125 54.79125 54 58 C44.1 58 34.2 58 24 58 C24 70.54 24 83.08 24 96 C16.08 96 8.16 96 0 96 C0 64.32 0 32.64 0 0 Z " fill="#000000" transform="translate(278,57)"/>
<path d="M0 0 C0 8.58 0 17.16 0 26 C-3.96 26.33 -7.92 26.66 -12 27 C-16.10186322 28.26211176 -18.22364049 29.01661129 -20.875 32.375 C-23.17314031 37.73732739 -23.19721393 43.05674566 -23.31640625 48.80078125 C-23.33718735 49.63715622 -23.35796844 50.47353119 -23.37937927 51.33525085 C-23.44451034 53.99425421 -23.5035895 56.65335228 -23.5625 59.3125 C-23.60571992 61.12045231 -23.6493353 62.92839522 -23.69335938 64.73632812 C-23.80089485 69.15745663 -23.90023865 73.57866194 -24 78 C-31.92 78 -39.84 78 -48 78 C-48 52.59 -48 27.18 -48 1 C-40.08 1 -32.16 1 -24 1 C-23.67 4.3 -23.34 7.6 -23 11 C-21.824375 9.906875 -20.64875 8.81375 -19.4375 7.6875 C-13.69483023 2.66520047 -7.74534276 0 0 0 Z " fill="#FC8A04" transform="translate(1051,75)"/>
<path d="M0 0 C1.9375 0.6875 1.9375 0.6875 2.9375 2.6875 C3.09270557 5.01023159 3.18769167 7.33709313 3.25390625 9.6640625 C3.27468735 10.34931 3.29546844 11.0345575 3.31687927 11.74057007 C3.38230185 13.93111069 3.44122554 16.12177189 3.5 18.3125 C3.54319218 19.7968875 3.5868067 21.28126278 3.63085938 22.765625 C3.73797553 26.40612084 3.83926362 30.04675251 3.9375 33.6875 C4.5975 34.0175 5.2575 34.3475 5.9375 34.6875 C5.95208252 33.76936523 5.96666504 32.85123047 5.98168945 31.90527344 C6.04283515 28.49062091 6.11700217 25.07676328 6.19995117 21.66259766 C6.23315355 20.18646862 6.26120017 18.71021406 6.28393555 17.23388672 C6.31756951 15.10850668 6.36988519 12.98427196 6.42578125 10.859375 C6.45196533 9.5815918 6.47814941 8.30380859 6.50512695 6.98730469 C6.95332046 3.5667607 7.60098256 2.15729958 9.9375 -0.3125 C11.8125 -0.0625 11.8125 -0.0625 13.9375 0.6875 C16.27108688 4.11530957 16.24461968 7.35804791 16.3515625 11.421875 C16.39023438 12.71738281 16.42890625 14.01289062 16.46875 15.34765625 C16.50020267 16.71093284 16.53145007 18.07421418 16.5625 19.4375 C16.60070469 20.81643028 16.63975787 22.19533734 16.6796875 23.57421875 C16.77398004 26.94517718 16.8595822 30.31612978 16.9375 33.6875 C17.5975 33.6875 18.2575 33.6875 18.9375 33.6875 C18.95208252 32.76412842 18.96666504 31.84075684 18.98168945 30.8894043 C19.04276308 27.46172796 19.1169161 24.03485338 19.19995117 20.60766602 C19.23319423 19.12470146 19.26122823 17.64161056 19.28393555 16.15844727 C19.31749468 14.02565707 19.36980638 11.89402388 19.42578125 9.76171875 C19.45196533 8.47869873 19.47814941 7.19567871 19.50512695 5.8737793 C19.9375 2.6875 19.9375 2.6875 21.46948242 0.74536133 C21.95392822 0.39626709 22.43837402 0.04717285 22.9375 -0.3125 C25.375 0.4375 25.375 0.4375 27.9375 1.6875 C30.23209054 7.76816494 29.66889487 15.23734719 29.9375 21.6875 C29.98358398 22.66122559 30.02966797 23.63495117 30.07714844 24.63818359 C30.21259249 27.80035739 30.29888808 30.96088422 30.375 34.125 C30.42148682 35.13079102 30.46797363 36.13658203 30.51586914 37.17285156 C30.6202699 44.37710058 28.99794455 49.39029983 23.9375 54.6875 C23.2775 54.6875 22.6175 54.6875 21.9375 54.6875 C21.6075 55.6775 21.2775 56.6675 20.9375 57.6875 C19.9475 58.1825 19.9475 58.1825 18.9375 58.6875 C17.81512108 63.30328332 17.85950919 67.84613588 17.9375 72.5625 C17.99982817 81.23056726 17.85493569 89.89150347 17.62011719 98.55596924 C17.58171663 100.01824151 17.54688368 101.48061183 17.515625 102.9430542 C17.47047966 105.01580156 17.41267837 107.08782607 17.3515625 109.16015625 C17.3201416 110.36937744 17.2887207 111.57859863 17.25634766 112.82446289 C16.9375 115.6875 16.9375 115.6875 14.9375 117.6875 C9.71430693 118.24315884 9.71430693 118.24315884 7.26914978 116.49411011 C5.47217347 114.05620518 5.5655117 112.48325298 5.56860352 109.46923828 C5.56172012 108.40448273 5.55483673 107.33972717 5.54774475 106.2427063 C5.55390305 105.09269135 5.56006134 103.94267639 5.56640625 102.7578125 C5.54902326 100.32942568 5.53143888 97.90104029 5.51367188 95.47265625 C5.50359444 91.63880774 5.50000331 87.80505261 5.50170898 83.97119141 C5.4981424 80.2747803 5.47080817 76.57909477 5.44140625 72.8828125 C5.44958878 71.73684601 5.4577713 70.59087952 5.46620178 69.41018677 C5.45965705 63.17219595 5.45965705 63.17219595 3.06616211 57.53857422 C0.92659929 55.61573155 0.92659929 55.61573155 -1.625 53.875 C-4.96349593 50.87891391 -6.16947827 47.99280078 -7.0625 43.6875 C-7.29642125 38.79197804 -7.17896859 33.94654081 -6.97143555 29.05200195 C-6.87539852 26.75951304 -6.80582028 24.46736956 -6.74023438 22.17382812 C-6.50004531 14.85775057 -6.22692091 7.73170623 -4.0625 0.6875 C-2.0625 -0.3125 -2.0625 -0.3125 0 0 Z " fill="#1D2E3E" transform="translate(88.0625,88.3125)"/>
<path d="M0 0 C7.92 0 15.84 0 24 0 C24 25.41 24 50.82 24 77 C16.08 77 8.16 77 0 77 C0 51.59 0 26.18 0 0 Z " fill="#FC8A04" transform="translate(694,76)"/>
<path d="M0 0 C1.32 0 2.64 0 4 0 C4.66 3.3 5.32 6.6 6 10 C8.31 10.66 10.62 11.32 13 12 C13.144375 12.928125 13.28875 13.85625 13.4375 14.8125 C13.92100111 18.00725111 13.92100111 18.00725111 15 21 C16.65 20.67 18.3 20.34 20 20 C20 21.32 20 22.64 20 24 C20.93283296 26.20067421 20.93283296 26.20067421 22 28 C22.598125 27.814375 23.19625 27.62875 23.8125 27.4375 C26 27 26 27 29 28 C29 28.99 29 29.98 29 31 C29.46903802 33.21117926 29.98660921 34.97321842 31 37 C31.66 37 32.32 37 33 37 C33.495 36.01 33.495 36.01 34 35 C34.99 35.495 34.99 35.495 36 36 C36.40729228 38.32156597 36.74438677 40.6568787 37 43 C39.31 43 41.62 43 44 43 C44 43.66 44 44.32 44 45 C44.99 45.495 44.99 45.495 46 46 C45.01 46.99 44.02 47.98 43 49 C44.98 50.32 46.96 51.64 49 53 C49.66 52.67 50.32 52.34 51 52 C51.99 54.64 52.98 57.28 54 60 C56.31 59.67 58.62 59.34 61 59 C61 59.66 61 60.32 61 61 C60.34 61 59.68 61 59 61 C59.495 63.475 59.495 63.475 60 66 C60.66 66 61.32 66 62 66 C62 66.66 62 67.32 62 68 C63.65 68.33 65.3 68.66 67 69 C67 69.66 67 70.32 67 71 C68.485 71.495 68.485 71.495 70 72 C70.556875 72.66 71.11375 73.32 71.6875 74 C75.01714911 76.87969653 77.65674767 76.71044984 82 77 C82.08142927 75.2507786 82.13938541 73.50045458 82.1875 71.75 C82.22230469 70.77546875 82.25710937 69.8009375 82.29296875 68.796875 C81.95695231 65.58903804 81.19413727 64.31632893 79 62 C78.34 61.67 77.68 61.34 77 61 C77.01160156 60.04480469 77.02320312 59.08960938 77.03515625 58.10546875 C77.08284103 51.27292089 77.01546033 44.57117419 76.28125 37.76953125 C75.84484613 33.47216539 75.62515772 29.15967668 75.37890625 24.84765625 C75.01434139 22.10778219 74.40171326 20.35510527 73 18 C72.01 18 71.02 18 70 18 C69.505 15.03 69.505 15.03 69 12 C68.05125 11.71125 67.1025 11.4225 66.125 11.125 C63 10 63 10 61 8 C61 7.01 61 6.02 61 5 C64.10937051 6.43834826 66.72400556 8.16197308 69.4375 10.25 C70.54931641 11.09304687 70.54931641 11.09304687 71.68359375 11.953125 C78.72709316 18.1770604 78.72709316 18.1770604 79.58007812 23.87475586 C79.58734544 25.32152512 79.56987726 26.76857197 79.53125 28.21484375 C79.53614441 29.37579308 79.53614441 29.37579308 79.5411377 30.56019592 C79.55422564 33.84756875 79.50964317 37.13356038 79.47021484 40.4206543 C79.44963884 42.83163579 79.45859802 45.24132635 79.46875 47.65234375 C79.44913208 48.38484848 79.42951416 49.11735321 79.40930176 49.87205505 C79.43431738 54.87464059 80.63101079 57.61690924 83.82727051 61.46925354 C86.99256426 65.60086466 86.42446359 71.07150609 86 76 C84.6614444 79.6438458 83.85817104 80.59134712 80.375 82.25 C72.53298052 81.66910967 66.16737356 73.40754352 60.609375 68.32421875 C57.92979609 65.93746808 55.17345158 63.68321874 52.375 61.4375 C48.28207955 58.12747292 44.54219732 54.65711239 40.87890625 50.8828125 C39.07018529 49.07033121 37.20024519 47.40790864 35.25 45.75 C21.04737243 33.4726795 7.85423783 19.21890601 0 2 C0 1.34 0 0.68 0 0 Z " fill="#18865E" transform="translate(11,149)"/>
<path d="M0 0 C3.07736663 3.1903724 3.368479 5.5172767 3.34057617 9.87011719 C3.34034958 11.05103943 3.34012299 12.23196167 3.33988953 13.44866943 C3.32440567 14.71857727 3.30892181 15.98848511 3.29296875 17.296875 C3.28872391 18.60078186 3.28447906 19.90468872 3.28010559 21.24810791 C3.26867549 24.70718772 3.23922477 28.16588698 3.20599365 31.62481689 C3.1752528 35.15737765 3.16159172 38.69000016 3.14648438 42.22265625 C3.11435282 49.14859339 3.06317904 56.0742784 3 63 C2.67 63 2.34 63 2 63 C1.93941406 61.95199219 1.87882812 60.90398438 1.81640625 59.82421875 C1.73198262 58.44529952 1.64733553 57.06639395 1.5625 55.6875 C1.52318359 54.99720703 1.48386719 54.30691406 1.44335938 53.59570312 C1.25072585 50.52838465 0.97677283 47.93031848 0 45 C-0.08589303 43.60344541 -0.11772715 42.20314223 -0.11352539 40.80395508 C-0.11341209 39.54298759 -0.11341209 39.54298759 -0.11329651 38.25654602 C-0.10813522 37.35333115 -0.10297394 36.45011627 -0.09765625 35.51953125 C-0.0962413 34.59154221 -0.09482635 33.66355316 -0.09336853 32.70744324 C-0.08776937 29.74242942 -0.07521704 26.77749101 -0.0625 23.8125 C-0.05748489 21.80273547 -0.052922 19.79296975 -0.04882812 17.78320312 C-0.03780021 12.85543968 -0.02053617 7.92773263 0 3 C-0.66 3 -1.32 3 -2 3 C-2.33 3.99 -2.66 4.98 -3 6 C-3 5.01 -3 4.02 -3 3 C-4.32 3.99 -5.64 4.98 -7 6 C-7 5.34 -7 4.68 -7 4 C-7.680625 4.474375 -8.36125 4.94875 -9.0625 5.4375 C-12.46557622 7.24764693 -15.16418387 7.78287833 -19 8 C-19.99 7.01 -19.99 7.01 -21 6 C-23.79102127 6.78199457 -26.4419191 7.62340562 -29 9 C-30.06546898 11.48952515 -30.06546898 11.48952515 -30 14 C-30.33 14.66 -30.66 15.32 -31 16 C-31.66 16 -32.32 16 -33 16 C-33 15.34 -33 14.68 -33 14 C-34.98 14.99 -34.98 14.99 -37 16 C-37 15.34 -37 14.68 -37 14 C-37.66 14 -38.32 14 -39 14 C-39 14.66 -39 15.32 -39 16 C-39.86625 15.62875 -39.86625 15.62875 -40.75 15.25 C-41.4925 15.1675 -42.235 15.085 -43 15 C-45.27144074 16.85432087 -45.27144074 16.85432087 -47 19 C-46.505 19.99 -46.505 19.99 -46 21 C-46.66 21.99 -47.32 22.98 -48 24 C-48 23.01 -48 22.02 -48 21 C-50.50965614 21.70339566 -50.50965614 21.70339566 -53 23 C-53.77242269 24.83700789 -53.77242269 24.83700789 -54 27 C-54.6469365 28.6744239 -55.30959426 30.34302621 -56 32 C-56.99 31.01 -57.98 30.02 -59 29 C-61.66735273 31.48952921 -63.55746343 33.63408134 -65 37 C-63.515 37.495 -63.515 37.495 -62 38 C-62.99 38 -63.98 38 -65 38 C-65 38.66 -65 39.32 -65 40 C-66.65 40 -68.3 40 -70 40 C-69.814375 40.61875 -69.62875 41.2375 -69.4375 41.875 C-69 44 -69 44 -70 46 C-71.175625 46.185625 -71.175625 46.185625 -72.375 46.375 C-75.09758585 46.78094365 -75.09758585 46.78094365 -76.8125 48.8125 C-78.31806124 51.17106254 -78.31806124 51.17106254 -78 55 C-78.66 55 -79.32 55 -80 55 C-79.67 55.99 -79.34 56.98 -79 58 C-79.66 58 -80.32 58 -81 58 C-81.226875 58.53625 -81.45375 59.0725 -81.6875 59.625 C-83.43382056 62.78500863 -85.6402849 65.2676983 -88 68 C-89 66 -89 66 -88.28515625 63.671875 C-82.22545714 49.19054932 -75.15333853 37.93126725 -64 27 C-63.22527344 26.23816406 -62.45054688 25.47632812 -61.65234375 24.69140625 C-47.83461318 11.82662261 -19.87518708 -4.87287405 0 0 Z " fill="#8BC650" transform="translate(94,0)"/>
<path d="M0 0 C3.9886333 2.62887195 6.16903772 5.06961317 7.6875 9.625 C7.77046534 13.85623252 6.76117264 17.10209171 4.75 20.8125 C0.50054991 24.92915478 -4.07707957 25.1598154 -9.7421875 25.09375 C-14.50585548 24.55950686 -17.15558672 22.12579594 -20.125 18.5625 C-21.61864601 14.91136531 -21.92187475 11.66256882 -21.25 7.8125 C-16.89041583 -1.07434466 -8.87732563 -3.24363821 0 0 Z " fill="#FA8A06" transform="translate(713.25,44.1875)"/>
<path d="M0 0 C12.81685118 2.84871581 28.33267743 8.33062525 36.9921875 18.4831543 C33.84444752 17.89594033 32.18480734 16.9620627 29.8046875 14.8581543 C26.72874116 12.52444718 24.8793484 12.21963296 21.0546875 12.6706543 C19.69522235 12.91349699 18.3383192 13.17485656 16.9921875 13.4831543 C16.9921875 12.4931543 16.9921875 11.5031543 16.9921875 10.4831543 C13.65915359 7.98337887 12.25915148 7.4831543 7.9921875 7.4831543 C7.6621875 8.4731543 7.3321875 9.4631543 6.9921875 10.4831543 C6.3321875 10.4831543 5.6721875 10.4831543 4.9921875 10.4831543 C4.6621875 9.1631543 4.3321875 7.8431543 3.9921875 6.4831543 C3.0021875 6.4831543 2.0121875 6.4831543 0.9921875 6.4831543 C0.9921875 5.8231543 0.9921875 5.1631543 0.9921875 4.4831543 C-1.3178125 5.1431543 -3.6278125 5.8031543 -6.0078125 6.4831543 C-6.0078125 5.1631543 -6.0078125 3.8431543 -6.0078125 2.4831543 C-6.63429688 2.5553418 -7.26078125 2.6275293 -7.90625 2.7019043 C-9.13214844 2.84112305 -9.13214844 2.84112305 -10.3828125 2.9831543 C-11.60097656 3.12237305 -11.60097656 3.12237305 -12.84375 3.2644043 C-15.0078125 3.4831543 -15.0078125 3.4831543 -17.0078125 3.4831543 C-17.3378125 18.0031543 -17.6678125 32.5231543 -18.0078125 47.4831543 C-17.3478125 47.8131543 -16.6878125 48.1431543 -16.0078125 48.4831543 C-16.18183594 49.14702148 -16.35585937 49.81088867 -16.53515625 50.49487305 C-17.1147313 54.15912855 -16.8760546 57.62323477 -16.5703125 61.2956543 C-16.51810547 61.98852539 -16.46589844 62.68139648 -16.41210938 63.39526367 C-16.28341431 65.09169867 -16.14645066 66.78750293 -16.0078125 68.4831543 C-14.3578125 69.1431543 -12.7078125 69.8031543 -11.0078125 70.4831543 C-11.0078125 71.1431543 -11.0078125 71.8031543 -11.0078125 72.4831543 C-9.863125 71.9881543 -9.863125 71.9881543 -8.6953125 71.4831543 C-6.0078125 70.4831543 -6.0078125 70.4831543 -3.0078125 70.4831543 C-3.0078125 71.1431543 -3.0078125 71.8031543 -3.0078125 72.4831543 C-2.0178125 72.4831543 -1.0278125 72.4831543 -0.0078125 72.4831543 C-0.0078125 73.1431543 -0.0078125 73.8031543 -0.0078125 74.4831543 C1.4771875 73.9881543 1.4771875 73.9881543 2.9921875 73.4831543 C2.9921875 75.4831543 2.9921875 77.4831543 2.9921875 79.4831543 C3.9409375 79.4419043 4.8896875 79.4006543 5.8671875 79.3581543 C8.9921875 79.4831543 8.9921875 79.4831543 10.9921875 81.4831543 C11.6521875 81.8131543 12.3121875 82.1431543 12.9921875 82.4831543 C12.9509375 83.2462793 12.9096875 84.0094043 12.8671875 84.7956543 C12.77137926 87.71033846 12.77137926 87.71033846 14.9921875 90.4831543 C15.1171875 93.1706543 15.1171875 93.1706543 14.9921875 95.4831543 C14.4559375 94.8025293 13.9196875 94.1219043 13.3671875 93.4206543 C12.5834375 92.4512793 11.7996875 91.4819043 10.9921875 90.4831543 C10.54488281 89.91725586 10.09757812 89.35135742 9.63671875 88.76831055 C2.00336849 79.41592163 -7.41636462 75.17402613 -19.0078125 72.4831543 C-20.87395429 70.6170125 -20.15514632 67.48180645 -20.16894531 64.99145508 C-20.17391022 64.31337799 -20.17887512 63.6353009 -20.18399048 62.93667603 C-20.19864637 60.68392945 -20.20541996 58.4312533 -20.2109375 56.1784668 C-20.21668642 54.61766558 -20.22244418 53.05686439 -20.22821045 51.49606323 C-20.23873039 48.2191332 -20.24456644 44.94222776 -20.24804688 41.6652832 C-20.25353179 37.46282568 -20.27755528 33.26069214 -20.30601883 29.05833626 C-20.32462835 25.8327438 -20.32984991 22.6072296 -20.33138275 19.38158798 C-20.33441397 17.83220525 -20.34245829 16.28282404 -20.35556793 14.7334938 C-20.37259288 12.56662512 -20.37075735 10.40055071 -20.36425781 8.23364258 C-20.36790344 6.99977814 -20.37154907 5.7659137 -20.37530518 4.49465942 C-20.0078125 1.4831543 -20.0078125 1.4831543 -18.68865967 -0.41531372 C-13.68372719 -3.69526284 -5.42104557 -1.09196513 0 0 Z " fill="#E7A639" transform="translate(123.0078125,1.516845703125)"/>
<path d="M0 0 C2.27669241 3.41503861 2.09255712 4.84663675 1.4921875 8.79296875 C0.69604503 12.36297267 -0.61140787 15.61908002 -2 19 C-2.99 19 -3.98 19 -5 19 C-5.0928125 20.0828125 -5.0928125 20.0828125 -5.1875 21.1875 C-6.25761202 24.8917339 -8.19903832 26.39445425 -11 29 C-11.639375 29.86625 -12.27875 30.7325 -12.9375 31.625 C-15.341089 34.39276915 -17.70871711 35.46406799 -21 37 C-21.33 37.66 -21.66 38.32 -22 39 C-22.99 39 -23.98 39 -25 39 C-25 39.99 -25 40.98 -25 42 C-26.98 42.495 -26.98 42.495 -29 43 C-28.98952637 43.99330322 -28.97905273 44.98660645 -28.96826172 46.01000977 C-28.93186489 49.7205846 -28.90902839 53.43114387 -28.89013672 57.1418457 C-28.88012377 58.74310974 -28.8665094 60.34435571 -28.84912109 61.94555664 C-28.82466435 64.25671876 -28.81346971 66.56763762 -28.8046875 68.87890625 C-28.79436493 69.58648575 -28.78404236 70.29406525 -28.77340698 71.02308655 C-28.77237458 75.6716057 -29.39353871 79.63432097 -31 84 C-32.3303125 85.175625 -32.3303125 85.175625 -33.6875 86.375 C-36.19394725 88.70053795 -36.19394725 88.70053795 -36.20703125 91.23828125 C-36.00381656 93.64234941 -35.78927055 95.7173937 -35 98 C-34.01 98.66 -33.02 99.32 -32 100 C-32 100.66 -32 101.32 -32 102 C-30.68 102 -29.36 102 -28 102 C-27.67 101.01 -27.34 100.02 -27 99 C-25.515 98.01 -25.515 98.01 -24 97 C-22.78715124 93.94570927 -22.78715124 93.94570927 -22 91 C-21.071875 90.95875 -20.14375 90.9175 -19.1875 90.875 C-18.135625 90.58625 -17.08375 90.2975 -16 90 C-14.96708324 88.01679982 -13.9662501 86.01652194 -13 84 C-10.3125 83.125 -10.3125 83.125 -8 83 C-8 81.68 -8 80.36 -8 79 C-7.34 79 -6.68 79 -6 79 C-5.505 77.02 -5.505 77.02 -5 75 C-2.69 75 -0.38 75 2 75 C2 74.34 2 73.68 2 73 C4.475 72.505 4.475 72.505 7 72 C6.06409496 73.1055189 5.12620142 74.20935453 4.1875 75.3125 C3.66542969 75.92738281 3.14335937 76.54226562 2.60546875 77.17578125 C-0.3373102 80.51952278 -0.3373102 80.51952278 -2 82 C-2.66 82 -3.32 82 -4 82 C-4 82.66 -4 83.32 -4 84 C-5.57286684 85.41438406 -7.21139996 86.75604401 -8.875 88.0625 C-13.64491054 91.873511 -18.2142484 95.82879996 -22.7109375 99.95703125 C-29.34756547 105.88016509 -29.34756547 105.88016509 -33.0625 106.5625 C-36 106 -36 106 -38.375 104.25 C-40.89814571 99.20370859 -40.96027779 94.52334962 -40 89 C-38.69013921 86.37250476 -37.2428283 84.22509064 -35.41015625 81.9375 C-32.47193964 77.90050433 -32.81304447 73.28779292 -32.71875 68.4609375 C-32.70034058 67.73887115 -32.68193115 67.01680481 -32.66296387 66.27285767 C-32.58449341 63.19214261 -32.51640475 60.11122061 -32.44775391 57.03027344 C-32.39606749 54.77788377 -32.33882464 52.52568309 -32.28125 50.2734375 C-32.26767456 49.57447357 -32.25409912 48.87550964 -32.2401123 48.15536499 C-32.11286005 43.22572011 -32.11286005 43.22572011 -31 41 C-30.34 41 -29.68 41 -29 41 C-28.75636719 40.40960938 -28.51273438 39.81921875 -28.26171875 39.2109375 C-26.7748996 36.60555162 -25.22458672 35.39358682 -22.8125 33.625 C-22.00683594 33.01398438 -21.20117188 32.40296875 -20.37109375 31.7734375 C-18.95050644 30.71092244 -17.52698896 29.65228347 -16.09765625 28.6015625 C-6.86479277 21.35763786 -2.72117862 11.05788041 0 0 Z " fill="#DB592E" transform="translate(142,125)"/>
<path d="M0 0 C1.8125 0.8125 1.8125 0.8125 2.8125 2.8125 C2.1525 3.8025 1.4925 4.7925 0.8125 5.8125 C0.8125 4.8225 0.8125 3.8325 0.8125 2.8125 C-1.69715614 3.51589566 -1.69715614 3.51589566 -4.1875 4.8125 C-4.95992269 6.64950789 -4.95992269 6.64950789 -5.1875 8.8125 C-5.8344365 10.4869239 -6.49709426 12.15552621 -7.1875 13.8125 C-8.1775 12.8225 -9.1675 11.8325 -10.1875 10.8125 C-12.85485273 13.30202921 -14.74496343 15.44658134 -16.1875 18.8125 C-15.1975 19.1425 -14.2075 19.4725 -13.1875 19.8125 C-14.1775 19.8125 -15.1675 19.8125 -16.1875 19.8125 C-16.1875 20.4725 -16.1875 21.1325 -16.1875 21.8125 C-17.8375 21.8125 -19.4875 21.8125 -21.1875 21.8125 C-21.001875 22.43125 -20.81625 23.05 -20.625 23.6875 C-20.1875 25.8125 -20.1875 25.8125 -21.1875 27.8125 C-21.97125 27.93625 -22.755 28.06 -23.5625 28.1875 C-26.28508585 28.59344365 -26.28508585 28.59344365 -28 30.625 C-29.50556124 32.98356254 -29.50556124 32.98356254 -29.1875 36.8125 C-29.8475 36.8125 -30.5075 36.8125 -31.1875 36.8125 C-30.8575 37.8025 -30.5275 38.7925 -30.1875 39.8125 C-30.8475 39.8125 -31.5075 39.8125 -32.1875 39.8125 C-32.414375 40.34875 -32.64125 40.885 -32.875 41.4375 C-34.62132056 44.59750863 -36.8277849 47.0801983 -39.1875 49.8125 C-40.1875 47.8125 -40.1875 47.8125 -39.47265625 45.484375 C-32.31220095 28.37248822 -23.10307758 14.16130903 -8.1875 2.8125 C-7.5275 2.8125 -6.8675 2.8125 -6.1875 2.8125 C-5.56875 2.296875 -4.95 1.78125 -4.3125 1.25 C-2.1875 -0.1875 -2.1875 -0.1875 0 0 Z " fill="#63B74A" transform="translate(45.1875,18.1875)"/>
<path d="M0 0 C0.33 0 0.66 0 1 0 C0.11615266 24.12903237 -11.77030727 44.87367943 -27 63 C-27.65742188 63.79277344 -28.31484375 64.58554688 -28.9921875 65.40234375 C-32.52507637 69.57291173 -32.52507637 69.57291173 -34 71 C-34.66 71 -35.32 71 -36 71 C-36.66 72.32 -37.32 73.64 -38 75 C-38.66 75 -39.32 75 -40 75 C-40.66 76.32 -41.32 77.64 -42 79 C-42.66 79 -43.32 79 -44 79 C-44.66 80.32 -45.32 81.64 -46 83 C-46.66 83 -47.32 83 -48 83 C-48 81.35 -48 79.7 -48 78 C-46.515 77.505 -46.515 77.505 -45 77 C-44.938125 76.21625 -44.87625 75.4325 -44.8125 74.625 C-44 72 -44 72 -41.625 70.6875 C-39 70 -39 70 -36 70 C-36 69.34 -36 68.68 -36 68 C-35.01 68 -34.02 68 -33 68 C-33 66.68 -33 65.36 -33 64 C-32.01 64 -31.02 64 -30 64 C-30 63.01 -30 62.02 -30 61 C-29.34 61 -28.68 61 -28 61 C-28 60.01 -28 59.02 -28 58 C-27.01 57.505 -27.01 57.505 -26 57 C-26 56.01 -26 55.02 -26 54 C-25.34 54 -24.68 54 -24 54 C-23.67 53.34 -23.34 52.68 -23 52 C-22.34 52 -21.68 52 -21 52 C-21 51.34 -21 50.68 -21 50 C-19.66666667 48.66666667 -18.33333333 47.33333333 -17 46 C-16.67 45.01 -16.34 44.02 -16 43 C-15.34 43 -14.68 43 -14 43 C-14.020625 42.236875 -14.04125 41.47375 -14.0625 40.6875 C-14 38 -14 38 -13 35 C-12.01 35 -11.02 35 -10 35 C-10.04125 34.2575 -10.0825 33.515 -10.125 32.75 C-9.99601866 29.91241048 -9.42948778 28.41226062 -8 26 C-7.34 26 -6.68 26 -6 26 C-5.814375 24.4840625 -5.814375 24.4840625 -5.625 22.9375 C-5.02175418 19.13705132 -4.08835041 15.68829861 -3 12 C-1.9763677 8.0058269 -0.98610526 4.00358736 0 0 Z " fill="#E06236" transform="translate(197,114)"/>
<path d="M0 0 C1.485 0.99 1.485 0.99 3 2 C2.82597656 2.66386719 2.65195313 3.32773437 2.47265625 4.01171875 C1.8930812 7.67597426 2.1317579 11.14008047 2.4375 14.8125 C2.48970703 15.50537109 2.54191406 16.19824219 2.59570312 16.91210938 C2.72439819 18.60854437 2.86136184 20.30434863 3 22 C5.475 22.99 5.475 22.99 8 24 C8 24.66 8 25.32 8 26 C8.763125 25.67 9.52625 25.34 10.3125 25 C13 24 13 24 16 24 C16 24.66 16 25.32 16 26 C16.99 26 17.98 26 19 26 C19 26.66 19 27.32 19 28 C19.99 27.67 20.98 27.34 22 27 C22 29 22 31 22 33 C22.94875 32.95875 23.8975 32.9175 24.875 32.875 C28 33 28 33 30 35 C30.66 35.33 31.32 35.66 32 36 C31.95875 36.763125 31.9175 37.52625 31.875 38.3125 C31.77919176 41.22718416 31.77919176 41.22718416 34 44 C34.125 46.6875 34.125 46.6875 34 49 C33.46375 48.319375 32.9275 47.63875 32.375 46.9375 C31.59125 45.968125 30.8075 44.99875 30 44 C29.55269531 43.43410156 29.10539062 42.86820313 28.64453125 42.28515625 C21.01118099 32.93276733 11.59144788 28.69087183 0 26 C-1 25 -1 25 -1.02172852 22.59155273 C-0.97459717 21.54942627 -0.92746582 20.5072998 -0.87890625 19.43359375 C-0.83056641 18.30888672 -0.78222656 17.18417969 -0.73242188 16.02539062 C-0.67634766 14.84138672 -0.62027344 13.65738281 -0.5625 12.4375 C-0.51029297 11.24962891 -0.45808594 10.06175781 -0.40429688 8.83789062 C-0.2741434 5.89168934 -0.1391636 2.94578724 0 0 Z " fill="#F88221" transform="translate(104,48)"/>
<path d="M0 0 C0.66 0.33 1.32 0.66 2 1 C2.2545727 4.93629132 2.47429232 8.87376868 2.6875 12.8125 C2.76033203 13.93205078 2.83316406 15.05160156 2.90820312 16.20507812 C2.96298828 17.27822266 3.01777344 18.35136719 3.07421875 19.45703125 C3.16062622 20.9416687 3.16062622 20.9416687 3.2487793 22.45629883 C3 25 3 25 1.61254883 26.81396484 C-0.31496412 28.23165718 -1.63939951 28.48704956 -4 28.8125 C-9.9889509 29.95932038 -14.7803516 32.9750699 -20 36 C-21.3274821 36.67824295 -22.65863633 37.34964186 -24 38 C-23.2884375 36.63875 -23.2884375 36.63875 -22.5625 35.25 C-21.35371179 32.73572051 -20.52006114 30.70431791 -20 28 C-19.01 28.33 -18.02 28.66 -17 29 C-17 28.34 -17 27.68 -17 27 C-15.7934375 26.7834375 -15.7934375 26.7834375 -14.5625 26.5625 C-12.07896294 26.25864751 -12.07896294 26.25864751 -11 25 C-9.906875 25.020625 -8.81375 25.04125 -7.6875 25.0625 C-3.80453004 25.26225816 -3.80453004 25.26225816 0 23 C0 15.41 0 7.82 0 0 Z " fill="#5AAE4F" transform="translate(94,47)"/>
<path d="M0 0 C2.27669241 3.41503861 2.09255712 4.84663675 1.4921875 8.79296875 C0.69604503 12.36297267 -0.61140787 15.61908002 -2 19 C-2.99 19 -3.98 19 -5 19 C-5.0928125 20.0828125 -5.0928125 20.0828125 -5.1875 21.1875 C-6.25761202 24.8917339 -8.19903832 26.39445425 -11 29 C-11.639375 29.86625 -12.27875 30.7325 -12.9375 31.625 C-15.341089 34.39276915 -17.70871711 35.46406799 -21 37 C-21.33 37.66 -21.66 38.32 -22 39 C-24.3140622 39.73075648 -26.64828869 40.40138258 -29 41 C-27.56047553 37.51162854 -25.83604769 35.84192137 -22.8125 33.625 C-22.00683594 33.01398438 -21.20117188 32.40296875 -20.37109375 31.7734375 C-18.95050644 30.71092244 -17.52698896 29.65228347 -16.09765625 28.6015625 C-6.86479277 21.35763786 -2.72117862 11.05788041 0 0 Z " fill="#E16C37" transform="translate(142,125)"/>
<path d="M0 0 C-0.66 0 -1.32 0 -2 0 C-2 0.66 -2 1.32 -2 2 C-2.56589844 2.15855469 -3.13179687 2.31710938 -3.71484375 2.48046875 C-5.92987676 3.18507503 -7.95159849 3.89768224 -10 5 C-11.06546898 7.48952515 -11.06546898 7.48952515 -11 10 C-11.33 10.66 -11.66 11.32 -12 12 C-12.66 12 -13.32 12 -14 12 C-14 11.34 -14 10.68 -14 10 C-15.98 10.99 -15.98 10.99 -18 12 C-18 11.34 -18 10.68 -18 10 C-18.66 10 -19.32 10 -20 10 C-20 10.66 -20 11.32 -20 12 C-20.5775 11.773125 -21.155 11.54625 -21.75 11.3125 C-24.05179959 10.7345749 -24.05179959 10.7345749 -25.8125 12.25 C-26.534375 12.8275 -27.25625 13.405 -28 14 C-30.32481174 15.01965427 -32.65794699 16.02059602 -35 17 C-35.99 17.66 -36.98 18.32 -38 19 C-35.02423403 11.44356056 -25.92601697 7.77677053 -18.8984375 4.66796875 C-17.10322113 3.91424451 -15.30369272 3.17070842 -13.5 2.4375 C-12.62746582 2.07881836 -11.75493164 1.72013672 -10.85595703 1.35058594 C-9.61241455 0.8657373 -9.61241455 0.8657373 -8.34375 0.37109375 C-7.60318359 0.08161865 -6.86261719 -0.20785645 -6.09960938 -0.50610352 C-3.70306106 -1.06984971 -2.3074968 -0.78187639 0 0 Z " fill="#7FBB54" transform="translate(75,4)"/>
<path d="M0 0 C0.99 0.33 1.98 0.66 3 1 C3 1.66 3 2.32 3 3 C2.34 3 1.68 3 1 3 C1.185625 3.61875 1.37125 4.2375 1.5625 4.875 C2 7 2 7 1 9 C-0.175625 9.185625 -0.175625 9.185625 -1.375 9.375 C-4.09758585 9.78094365 -4.09758585 9.78094365 -5.8125 11.8125 C-7.31806124 14.17106254 -7.31806124 14.17106254 -7 18 C-7.66 18 -8.32 18 -9 18 C-8.67 18.99 -8.34 19.98 -8 21 C-8.66 21 -9.32 21 -10 21 C-10.226875 21.53625 -10.45375 22.0725 -10.6875 22.625 C-12.43382056 25.78500863 -14.6402849 28.2676983 -17 31 C-18 29 -18 29 -17.28515625 26.671875 C-14.79365207 20.71773721 -12.05431406 14.9608589 -8.9375 9.3125 C-8.44552124 8.39452637 -8.44552124 8.39452637 -7.94360352 7.45800781 C-5.50834743 3.17914927 -5.50834743 3.17914927 -2.81640625 2.23046875 C-2.21699219 2.15441406 -1.61757813 2.07835937 -1 2 C-0.67 1.34 -0.34 0.68 0 0 Z " fill="#69AF5D" transform="translate(23,37)"/>
<path d="M0 0 C11.02374239 -0.65849789 20.2293468 1.78032849 29.9375 6.875 C30.56422607 7.20242187 31.19095215 7.52984375 31.83666992 7.8671875 C35.93394343 10.12380069 38.87403286 12.59524641 42 16 C38.85226002 15.41278603 37.19261984 14.47890841 34.8125 12.375 C31.73655366 10.04129288 29.8871609 9.73647867 26.0625 10.1875 C24.70303485 10.43034269 23.3461317 10.69170226 22 11 C22 10.01 22 9.02 22 8 C18.66696609 5.50022457 17.26696398 5 13 5 C12.67 5.99 12.34 6.98 12 8 C11.34 8 10.68 8 10 8 C9.67 6.68 9.34 5.36 9 4 C8.01 4 7.02 4 6 4 C6 3.34 6 2.68 6 2 C3.69 2.66 1.38 3.32 -1 4 C-0.67 2.68 -0.34 1.36 0 0 Z " fill="#EE9A28" transform="translate(118,4)"/>
<path d="M0 0 C1.32 0 2.64 0 4 0 C4.66 3.3 5.32 6.6 6 10 C8.31 10.66 10.62 11.32 13 12 C13.144375 12.928125 13.28875 13.85625 13.4375 14.8125 C13.92100111 18.00725111 13.92100111 18.00725111 15 21 C16.65 20.67 18.3 20.34 20 20 C20 21.32 20 22.64 20 24 C20.30830925 26.00401011 20.63729412 28.00511766 21 30 C20.34 30 19.68 30 19 30 C0 9.67 0 9.67 0 0 Z " fill="#1D8E5F" transform="translate(11,149)"/>
<path d="M0 0 C0.33 0 0.66 0 1 0 C0.26770202 19.99173493 -7.97491849 36.73800477 -19 53 C-19.495 51.515 -19.495 51.515 -20 50 C-18.625 48 -18.625 48 -17 46 C-16.67 45.01 -16.34 44.02 -16 43 C-15.34 43 -14.68 43 -14 43 C-14.0309375 41.8553125 -14.0309375 41.8553125 -14.0625 40.6875 C-14 38 -14 38 -13 35 C-12.01 35 -11.02 35 -10 35 C-10.061875 33.88625 -10.061875 33.88625 -10.125 32.75 C-9.99601866 29.91241048 -9.42948778 28.41226062 -8 26 C-7.34 26 -6.68 26 -6 26 C-5.87625 24.989375 -5.7525 23.97875 -5.625 22.9375 C-5.02175418 19.13705132 -4.08835041 15.68829861 -3 12 C-1.9763677 8.0058269 -0.98610526 4.00358736 0 0 Z " fill="#DC6A39" transform="translate(197,114)"/>
<path d="M0 0 C1.485 0.99 1.485 0.99 3 2 C2.82597656 2.66386719 2.65195313 3.32773437 2.47265625 4.01171875 C1.8930812 7.67597426 2.1317579 11.14008047 2.4375 14.8125 C2.48970703 15.50537109 2.54191406 16.19824219 2.59570312 16.91210938 C2.72439819 18.60854437 2.86136184 20.30434863 3 22 C5.475 22.99 5.475 22.99 8 24 C8 24.66 8 25.32 8 26 C8.763125 25.67 9.52625 25.34 10.3125 25 C13 24 13 24 16 24 C16 24.66 16 25.32 16 26 C15.34 26 14.68 26 14 26 C14 27.32 14 28.64 14 30 C12.06077578 29.54901762 10.12366406 29.08894441 8.1875 28.625 C6.56908203 28.24214844 6.56908203 28.24214844 4.91796875 27.8515625 C2 27 2 27 -1 25 C-1.2487793 22.47802734 -1.2487793 22.47802734 -1.07421875 19.3359375 C-1.01943359 18.21445313 -0.96464844 17.09296875 -0.90820312 15.9375 C-0.83537109 14.761875 -0.76253906 13.58625 -0.6875 12.375 C-0.62626953 11.19164062 -0.56503906 10.00828125 -0.50195312 8.7890625 C-0.34832729 5.85835421 -0.18042619 2.9291608 0 0 Z " fill="#F19525" transform="translate(104,48)"/>
<path d="M0 0 C0.66 0.33 1.32 0.66 2 1 C3.75886725 6.27660174 3.7955604 11.83430781 1.875 17.0625 C0 19 0 19 -2.625 20.25 C-8.04127345 19.84879456 -11.05281788 16.52045973 -15 13 C-15.92425781 12.18402344 -16.84851563 11.36804688 -17.80078125 10.52734375 C-20.21809628 8.36988154 -22.61636376 6.19453774 -25 4 C-24.34 3.67 -23.68 3.34 -23 3 C-22.34 3.33 -21.68 3.66 -21 4 C-21 4.66 -21 5.32 -21 6 C-19.35 6.33 -17.7 6.66 -16 7 C-16 7.66 -16 8.32 -16 9 C-15.01 9.33 -14.02 9.66 -13 10 C-12.21625 10.99 -11.4325 11.98 -10.625 13 C-8.32447126 16.11397794 -8.32447126 16.11397794 -5.4375 16.9375 C-2.70729145 17.1161768 -2.70729145 17.1161768 1 16 C1 11.38 1 6.76 1 2 C0.34 1.67 -0.32 1.34 -1 1 C-0.67 0.67 -0.34 0.34 0 0 Z " fill="#268064" transform="translate(94,211)"/>
<path d="M0 0 C0.99 0.33 1.98 0.66 3 1 C3.12375 1.969375 3.2475 2.93875 3.375 3.9375 C3.684375 5.4534375 3.684375 5.4534375 4 7 C4.66 7.33 5.32 7.66 6 8 C5.67 10.97 5.34 13.94 5 17 C5.99 17.33 6.98 17.66 8 18 C7.9175 18.763125 7.835 19.52625 7.75 20.3125 C8.10787255 25.59112006 10.05330852 30.11589013 12 35 C11.01 35.495 11.01 35.495 10 36 C7.53845595 31.41420803 5.87668091 26.90936998 4.4375 21.9375 C4.22134033 21.19959229 4.00518066 20.46168457 3.7824707 19.70141602 C1.93776103 13.19476222 0.78331332 6.72246509 0 0 Z " fill="#389C60" transform="translate(0,112)"/>
<path d="M0 0 C0.66 0 1.32 0 2 0 C2.17015625 0.845625 2.3403125 1.69125 2.515625 2.5625 C4.65741502 12.58790008 7.38227489 19.27932071 14 27 C14 27.66 14 28.32 14 29 C13.01 29.33 12.02 29.66 11 30 C10.67 28.68 10.34 27.36 10 26 C9.34 26 8.68 26 8 26 C7.34 24.35 6.68 22.7 6 21 C4.68 21 3.36 21 2 21 C1.83165067 19.22932584 1.66538091 17.45845388 1.5 15.6875 C1.4071875 14.70136719 1.314375 13.71523437 1.21875 12.69921875 C1 10 1 10 1 7 C0.34 7 -0.32 7 -1 7 C-0.67 4.69 -0.34 2.38 0 0 Z " fill="#228F5A" transform="translate(55,122)"/>
<path d="M0 0 C3.42856619 1.50982731 5.95678216 3.51713969 8.75 6 C9.54921875 6.70125 10.3484375 7.4025 11.171875 8.125 C13 10 13 10 13 12 C13.57234375 12.20367187 14.1446875 12.40734375 14.734375 12.6171875 C17.89460815 14.54601946 19.26863396 17.02085988 21.25 20.125 C21.95640625 21.22070312 22.6628125 22.31640625 23.390625 23.4453125 C23.92171875 24.28835937 24.4528125 25.13140625 25 26 C24.34 26.33 23.68 26.66 23 27 C23 26.34 23 25.68 23 25 C22.443125 24.773125 21.88625 24.54625 21.3125 24.3125 C16.48071846 21.5701375 13.77809602 17.6722524 11 13 C10.01 12.34 9.02 11.68 8 11 C8 9.68 8 8.36 8 7 C7.34 7 6.68 7 6 7 C6 6.34 6 5.68 6 5 C4.68 5.33 3.36 5.66 2 6 C1.34 4.02 0.68 2.04 0 0 Z " fill="#E98836" transform="translate(160,20)"/>
<path d="M0 0 C0.33 0 0.66 0 1 0 C1.0493521 5.51756476 1.08569662 11.03500171 1.10986328 16.55273438 C1.11993534 18.43068682 1.13359362 20.30862353 1.15087891 22.18652344 C1.17507453 24.8822009 1.18647083 27.57767146 1.1953125 30.2734375 C1.20563507 31.11619232 1.21595764 31.95894714 1.22659302 32.82723999 C1.22699144 34.88621247 1.12257588 36.94467935 1 39 C-1 41 -1 41 -4.125 41.125 C-5.07375 41.08375 -6.0225 41.0425 -7 41 C-6.360625 40.731875 -5.72125 40.46375 -5.0625 40.1875 C-2.66868314 39.11332248 -2.66868314 39.11332248 -2 36 C-1.85992713 33.70287721 -1.77445309 31.40227775 -1.71875 29.1015625 C-1.70034058 28.42958832 -1.68193115 27.75761414 -1.66296387 27.0652771 C-1.60431215 24.91860562 -1.55148217 22.77185465 -1.5 20.625 C-1.43202925 17.80453155 -1.35829381 14.98429599 -1.28125 12.1640625 C-1.23581055 10.28388428 -1.23581055 10.28388428 -1.18945312 8.36572266 C-1.02605621 5.46290071 -0.66377546 2.82373304 0 0 Z " fill="#3A3A42" transform="translate(104,165)"/>
<path d="M0 0 C0.33 0 0.66 0 1 0 C1 19.14 1 38.28 1 58 C0.67 58 0.34 58 0 58 C-0.06058594 56.95199219 -0.12117188 55.90398438 -0.18359375 54.82421875 C-0.26801738 53.44529952 -0.35266447 52.06639395 -0.4375 50.6875 C-0.47681641 49.99720703 -0.51613281 49.30691406 -0.55664062 48.59570312 C-0.74927415 45.52838465 -1.02322717 42.93031848 -2 40 C-2.04432678 38.12068176 -2.04432678 38.12068176 -1.92993164 35.98754883 C-1.88981461 35.18694534 -1.84969757 34.38634186 -1.80836487 33.56147766 C-1.75945602 32.70201035 -1.71054718 31.84254303 -1.66015625 30.95703125 C-1.61434921 30.0734343 -1.56854218 29.18983734 -1.52134705 28.27946472 C-1.3737771 25.45682881 -1.2182355 22.63469603 -1.0625 19.8125 C-0.96106332 17.89911631 -0.86014546 15.98570505 -0.75976562 14.07226562 C-0.51252988 9.38116915 -0.25814384 4.69050836 0 0 Z " fill="#86B15F" transform="translate(96,5)"/>
<path d="M0 0 C2.00293347 3.00440021 2.49271626 4.70993945 3.125 8.1875 C3.37636719 9.53908203 3.37636719 9.53908203 3.6328125 10.91796875 C3.75398438 11.60503906 3.87515625 12.29210937 4 13 C5.65 13.33 7.3 13.66 9 14 C9 13.34 9 12.68 9 12 C9.99 12 10.98 12 12 12 C12.33 11.01 12.66 10.02 13 9 C14.75 6.8125 14.75 6.8125 17 5 C19.75 4.75 19.75 4.75 22 5 C20.35538837 6.69444834 18.69256061 8.35421871 17 10 C16.44570312 10.55042969 15.89140625 11.10085937 15.3203125 11.66796875 C12.46934102 14.33521095 10.69069186 15.85102725 6.8125 16.6875 C4 16 4 16 1.625 14.1875 C-0.75758003 9.51397764 -0.32458822 5.14832988 0 0 Z " fill="#DD603C" transform="translate(102,215)"/>
<path d="M0 0 C0.33 0 0.66 0 1 0 C2.74525841 11.54675431 3.75450118 22.37642967 2 34 C-1.93478948 30.06521052 -0.95520283 22.42045707 -1 17 C-0.8572774 11.32151226 -0.45040427 5.66123517 0 0 Z " fill="#E37137" transform="translate(197,79)"/>
<path d="M0 0 C1.3921875 0.3403125 1.3921875 0.3403125 2.8125 0.6875 C1.3275 2.1725 1.3275 2.1725 -0.1875 3.6875 C-0.1875 3.0275 -0.1875 2.3675 -0.1875 1.6875 C-1.1775 2.0175 -2.1675 2.3475 -3.1875 2.6875 C-4.26515373 7.1246721 -4.40424522 11.50886272 -4.50390625 16.05078125 C-4.52468735 16.84276413 -4.54546844 17.63474701 -4.56687927 18.45072937 C-4.63197804 20.96706928 -4.69107423 23.48350872 -4.75 26 C-4.793223 27.71159861 -4.83683848 29.42318735 -4.88085938 31.13476562 C-4.98761847 35.31890984 -5.08899635 39.50315362 -5.1875 43.6875 C-5.5175 43.6875 -5.8475 43.6875 -6.1875 43.6875 C-6.26160115 37.90343031 -6.31607885 32.11963629 -6.35229492 26.33520508 C-6.36739082 24.36705717 -6.38786948 22.39894294 -6.41381836 20.4309082 C-6.45016649 17.60359388 -6.46721814 14.7767239 -6.48046875 11.94921875 C-6.49595261 11.06787766 -6.51143646 10.18653656 -6.52738953 9.27848816 C-6.52761612 8.45786392 -6.52784271 7.63723969 -6.52807617 6.79174805 C-6.53473801 6.07004929 -6.54139984 5.34835052 -6.54826355 4.6047821 C-5.78544344 0.55076571 -3.93035151 -0.38532858 0 0 Z M2.8125 -0.3125 C3.8025 -0.3125 4.7925 -0.3125 5.8125 -0.3125 C5.4825 0.6775 5.1525 1.6675 4.8125 2.6875 C4.1525 1.6975 3.4925 0.7075 2.8125 -0.3125 Z " fill="#F9A012" transform="translate(111.1875,4.3125)"/>
<path d="M0 0 C0 8.58 0 17.16 0 26 C-3.96 26.33 -7.92 26.66 -12 27 C-14.005155 27.30077325 -16.0096889 27.61299506 -18 28 C-13.81530439 23.81530439 -7.59462766 24.46073404 -2 24 C-2 16.74 -2 9.48 -2 2 C-4.31 2.66 -6.62 3.32 -9 4 C-11.4375 3.625 -11.4375 3.625 -13 3 C-11.39743892 2.49487756 -9.79288208 1.99608373 -8.1875 1.5 C-7.29417969 1.2215625 -6.40085937 0.943125 -5.48046875 0.65625 C-3 0 -3 0 0 0 Z " fill="#F69119" transform="translate(1051,75)"/>
<path d="M0 0 C0 0.66 0 1.32 0 2 C0.99 1.67 1.98 1.34 3 1 C4.39439664 0.93334624 5.79169875 0.91461801 7.1875 0.9375 C9.0746875 0.9684375 9.0746875 0.9684375 11 1 C10.67 2.32 10.34 3.64 10 5 C10 4.01 10 3.02 10 2 C8.68 2.99 7.36 3.98 6 5 C6 4.34 6 3.68 6 3 C5.319375 3.474375 4.63875 3.94875 3.9375 4.4375 C0.58158044 6.2225636 -2.24161481 6.63153086 -6 7 C-6.66 5.68 -7.32 4.36 -8 3 C-7.34 3 -6.68 3 -6 3 C-6 2.34 -6 1.68 -6 1 C-3.92446352 0.4465236 -2.15634036 0 0 0 Z " fill="#80C640" transform="translate(81,1)"/>
<path d="M0 0 C0.33 0 0.66 0 1 0 C1.2475 1.03125 1.495 2.0625 1.75 3.125 C2.53969663 6.01483187 3.13404389 7.16164116 5.125 9.5625 C8.13030675 15.07222905 7.30316611 20.85246502 7 27 C1.296875 29.109375 1.296875 29.109375 -1.375 28.125 C-1.91125 27.75375 -2.4475 27.3825 -3 27 C0 25 0 25 2.6875 25.375 C3.8321875 25.684375 3.8321875 25.684375 5 26 C5.08142927 24.2507786 5.13938541 22.50045458 5.1875 20.75 C5.22230469 19.77546875 5.25710937 18.8009375 5.29296875 17.796875 C4.95695231 14.58903804 4.19413727 13.31632893 2 11 C1.34 10.67 0.68 10.34 0 10 C0 6.7 0 3.4 0 0 Z " fill="#128965" transform="translate(88,200)"/>
<path d="M0 0 C8.58 0 17.16 0 26 0 C25 5 25 5 23 7 C22.67 5.35 22.34 3.7 22 2 C14.74 2 7.48 2 0 2 C0 1.34 0 0.68 0 0 Z " fill="#E59129" transform="translate(964,127)"/>
<path d="M0 0 C0 0.66 0 1.32 0 2 C-1.32 2.33 -2.64 2.66 -4 3 C-3.98952637 4.0194873 -3.97905273 5.03897461 -3.96826172 6.08935547 C-3.93211273 9.86503602 -3.90911823 13.64070121 -3.89013672 17.41650391 C-3.88006746 19.05194672 -3.86641119 20.68737149 -3.84912109 22.32275391 C-3.82491295 24.6709437 -3.81352643 27.01889588 -3.8046875 29.3671875 C-3.79436493 30.10057343 -3.78404236 30.83395935 -3.77340698 31.58956909 C-3.77300632 33.39462697 -3.87787245 35.1990783 -4 37 C-4.66 37.66 -5.32 38.32 -6 39 C-6 26.46 -6 13.92 -6 1 C-3 0 -3 0 0 0 Z " fill="#F05C25" transform="translate(117,165)"/>
<path d="M0 0 C0.66 0 1.32 0 2 0 C3.25345864 3.76037591 3.14519842 7.27237199 3.125 11.1875 C3.12886719 11.91775391 3.13273437 12.64800781 3.13671875 13.40039062 C3.12795292 18.348702 2.69903576 23.10120175 2 28 C1.34 28 0.68 28 0 28 C0 18.76 0 9.52 0 0 Z " fill="#1F384A" transform="translate(95,93)"/>
<path d="M0 0 C0.99 0.33 1.98 0.66 3 1 C3.3721042 2.32303717 3.70630173 3.65737935 4 5 C4.66 5.33 5.32 5.66 6 6 C7.48329014 12.80074536 7.1184124 20.07945318 7 27 C6.01 26.67 5.02 26.34 4 26 C4.061875 24.783125 4.12375 23.56625 4.1875 22.3125 C4.20756007 15.99357918 2.57146407 10.08229875 1 4 C0.66615328 2.66679512 0.33257355 1.33352305 0 0 Z " fill="#E37335" transform="translate(138,97)"/>
<path d="M0 0 C-0.33 1.65 -0.66 3.3 -1 5 C-1.66 5 -2.32 5 -3 5 C-3.66 6.32 -4.32 7.64 -5 9 C-5.66 9 -6.32 9 -7 9 C-7.66 10.32 -8.32 11.64 -9 13 C-9.66 13 -10.32 13 -11 13 C-11 11.35 -11 9.7 -11 8 C-10.01 7.67 -9.02 7.34 -8 7 C-7.938125 6.21625 -7.87625 5.4325 -7.8125 4.625 C-7 2 -7 2 -4.5625 0.6875 C-2 0 -2 0 0 0 Z " fill="#EA5D2F" transform="translate(160,184)"/>
<path d="M0 0 C0.33 0 0.66 0 1 0 C1.66 2.97 2.32 5.94 3 9 C2.34 9 1.68 9 1 9 C0.87625 10.258125 0.7525 11.51625 0.625 12.8125 C0.30131941 16.10325263 -0.06604999 17.09907498 -2 20 C-1.773125 18.741875 -1.54625 17.48375 -1.3125 16.1875 C-0.9807935 14.00854017 -0.9807935 14.00854017 -1 12 C-2.45833358 10.37485532 -2.45833358 10.37485532 -4 9 C-3.6875 5.8125 -3.6875 5.8125 -3 3 C-2.34 3 -1.68 3 -1 3 C-0.67 2.01 -0.34 1.02 0 0 Z " fill="#F6651D" transform="translate(196,105)"/>
<path d="M0 0 C0.66 0 1.32 0 2 0 C1.79503906 0.80824219 1.59007812 1.61648437 1.37890625 2.44921875 C0.97478516 4.05216797 0.97478516 4.05216797 0.5625 5.6875 C0.29566406 6.74324219 0.02882813 7.79898438 -0.24609375 8.88671875 C-1.03161038 11.92539803 -1.03161038 11.92539803 -1.41015625 14.76953125 C-2 17 -2 17 -5 19 C-5.05402274 16.89611431 -5.09280256 14.79183286 -5.125 12.6875 C-5.14820313 11.51574219 -5.17140625 10.34398438 -5.1953125 9.13671875 C-5 6 -5 6 -3 3 C-2.01 3 -1.02 3 0 3 C0 2.01 0 1.02 0 0 Z " fill="#339F5A" transform="translate(59,98)"/>
<path d="M0 0 C0.99 0 1.98 0 3 0 C2.80442984 4.20475835 2.23756256 5.74586331 -0.6875 8.875 C-4.2470284 11.15847105 -5.87230593 11.49139215 -10 11 C-9.67 9.68 -9.34 8.36 -9 7 C-8.071875 6.95875 -7.14375 6.9175 -6.1875 6.875 C-2.71052362 6.31140969 -2.71052362 6.31140969 -1.125 2.9375 C-0.75375 1.968125 -0.3825 0.99875 0 0 Z " fill="#EA582B" transform="translate(129,209)"/>
<path d="M0 0 C2 2 2 2 2.22705078 3.97119141 C2.21657715 4.75671387 2.20610352 5.54223633 2.1953125 6.3515625 C2.18886719 7.20234375 2.18242188 8.053125 2.17578125 8.9296875 C2.15902344 9.81914062 2.14226562 10.70859375 2.125 11.625 C2.11597656 12.5221875 2.10695313 13.419375 2.09765625 14.34375 C2.0740497 16.56276586 2.0411231 18.78125077 2 21 C1.01 20.34 0.02 19.68 -1 19 C-1.24869641 16.08669922 -1.32634278 13.40579705 -1.25 10.5 C-1.24484375 9.71496094 -1.2396875 8.92992187 -1.234375 8.12109375 C-1.15462412 2.30924824 -1.15462412 2.30924824 0 0 Z " fill="#1A2027" transform="translate(104,151)"/>
<path d="M0 0 C1.8125 0.8125 1.8125 0.8125 2.8125 2.8125 C1.8225 4.2975 1.8225 4.2975 0.8125 5.8125 C0.8125 4.8225 0.8125 3.8325 0.8125 2.8125 C-1.69715614 3.51589566 -1.69715614 3.51589566 -4.1875 4.8125 C-4.95992269 6.64950789 -4.95992269 6.64950789 -5.1875 8.8125 C-5.8344365 10.4869239 -6.49709426 12.15552621 -7.1875 13.8125 C-7.8475 13.4825 -8.5075 13.1525 -9.1875 12.8125 C-9.001875 11.905 -8.81625 10.9975 -8.625 10.0625 C-8.23015379 7.12935676 -8.24058428 5.5480343 -9.1875 2.8125 C-8.1975 2.8125 -7.2075 2.8125 -6.1875 2.8125 C-5.2284375 2.0390625 -5.2284375 2.0390625 -4.25 1.25 C-2.1875 -0.1875 -2.1875 -0.1875 0 0 Z " fill="#66B947" transform="translate(45.1875,18.1875)"/>
<path d="M0 0 C0.625 1.8125 0.625 1.8125 1 4 C0.01 5.485 0.01 5.485 -1 7 C-1.66 7 -2.32 7 -3 7 C-3 6.34 -3 5.68 -3 5 C-4.98 5.99 -4.98 5.99 -7 7 C-7 6.34 -7 5.68 -7 5 C-7.66 5 -8.32 5 -9 5 C-9 5.66 -9 6.32 -9 7 C-9.99 6.67 -10.98 6.34 -12 6 C-11.67 5.34 -11.34 4.68 -11 4 C-10.34 4 -9.68 4 -9 4 C-8.67 3.34 -8.34 2.68 -8 2 C-2.77777778 0 -2.77777778 0 0 0 Z " fill="#68BF41" transform="translate(64,9)"/>
<path d="M0 0 C0.66 0.33 1.32 0.66 2 1 C-2.44287139 5.93652377 -7.99619843 8.50785595 -14 11 C-14.99 11.66 -15.98 12.32 -17 13 C-15.47514897 8.78534964 -12.74376763 7.19082199 -9.0625 4.8125 C-8.00160156 4.11769531 -6.94070312 3.42289063 -5.84765625 2.70703125 C-3 1 -3 1 0 0 Z " fill="#7BB55D" transform="translate(54,10)"/>
<path d="M0 0 C0.99 0.33 1.98 0.66 3 1 C3 1.99 3 2.98 3 4 C3.556875 4.226875 4.11375 4.45375 4.6875 4.6875 C7.74155835 6.42088447 9.7825433 8.27569606 12 11 C11.8125 13.8125 11.8125 13.8125 11 16 C10.34 16 9.68 16 9 16 C8.566875 14.63875 8.566875 14.63875 8.125 13.25 C6.9054261 9.44341772 6.9054261 9.44341772 5 6 C2.44480079 5.18828772 2.44480079 5.18828772 0 5 C0 3.35 0 1.7 0 0 Z " fill="#F9831C" transform="translate(171,34)"/>
<path d="M0 0 C0.33 0 0.66 0 1 0 C0.23207061 15.41154836 0.23207061 15.41154836 -3 22 C-3.99 22.33 -4.98 22.66 -6 23 C-5.1455101 18.0942227 -4.25196419 13.3392881 -2.4375 8.6875 C-1.28252753 5.72474452 -0.48780352 3.12194255 0 0 Z " fill="#E06330" transform="translate(197,114)"/>
<path d="M0 0 C1.65 0 3.3 0 5 0 C5 0.66 5 1.32 5 2 C5.99 1.67 6.98 1.34 8 1 C8 4 8 4 7 7 C4.69 6.34 2.38 5.68 0 5 C0 3.35 0 1.7 0 0 Z " fill="#F4881F" transform="translate(118,74)"/>
<path d="M0 0 C0.99 0.33 1.98 0.66 3 1 C3 1.66 3 2.32 3 3 C2.34 3 1.68 3 1 3 C1.185625 3.61875 1.37125 4.2375 1.5625 4.875 C2 7 2 7 1 9 C-1.97 8.505 -1.97 8.505 -5 8 C-5 6.35 -5 4.7 -5 3 C-4.360625 2.87625 -3.72125 2.7525 -3.0625 2.625 C-2.0415625 2.315625 -2.0415625 2.315625 -1 2 C-0.67 1.34 -0.34 0.68 0 0 Z " fill="#57BA43" transform="translate(23,37)"/>
<path d="M0 0 C0.66 0.33 1.32 0.66 2 1 C1.649375 1.94875 1.29875 2.8975 0.9375 3.875 C-0.7923327 9.85632291 0.41003504 16.08859182 2 22 C1.34 22 0.68 22 0 22 C-2.49111925 18.26332113 -2.29613477 15.32129024 -2.25 11 C-2.25773438 10.27554688 -2.26546875 9.55109375 -2.2734375 8.8046875 C-2.25942063 5.00611507 -2.15441944 3.23162916 0 0 Z " fill="#EB8E1F" transform="translate(847,104)"/>
<path d="M0 0 C-2.70868825 6.86201022 -2.70868825 6.86201022 -5.375 8.125 C-8 9 -8 9 -11 9 C-9.55936614 4.67809842 -4.74032109 0 0 0 Z " fill="#F48F10" transform="translate(934,80)"/>
<path d="M0 0 C0.99 0.495 0.99 0.495 2 1 C2.33 8.59 2.66 16.18 3 24 C2.01 23.67 1.02 23.34 0 23 C0 15.41 0 7.82 0 0 Z " fill="#6CB550" transform="translate(94,47)"/>
<path d="M0 0 C0.66 0 1.32 0 2 0 C2.268125 0.5775 2.53625 1.155 2.8125 1.75 C3.95053246 4.05747896 3.95053246 4.05747896 5.625 6.125 C7 8 7 8 7 10 C4.625 10.1875 4.625 10.1875 2 10 C-0.4294516 6.3558226 -0.16179575 4.28758728 0 0 Z " fill="#F45221" transform="translate(104,219)"/>
<path d="M0 0 C0.99 0.99 1.98 1.98 3 3 C2.67 3.66 2.34 4.32 2 5 C1.34 5 0.68 5 0 5 C-0.103125 5.78375 -0.20625 6.5675 -0.3125 7.375 C-1 10 -1 10 -4 12 C-4.49230769 4.61538462 -4.49230769 4.61538462 -2 1.5 C-1.34 1.005 -0.68 0.51 0 0 Z " fill="#F16120" transform="translate(181,152)"/>
<path d="M0 0 C0.89203125 0.08378906 1.7840625 0.16757813 2.703125 0.25390625 C3.87359375 0.35574219 5.0440625 0.45757812 6.25 0.5625 C7.99023438 0.71912109 7.99023438 0.71912109 9.765625 0.87890625 C12.51871477 0.98198087 14.419982 0.86213473 17 0 C17 0.66 17 1.32 17 2 C16.34 2 15.68 2 15 2 C15 3.32 15 4.64 15 6 C13.05954312 5.5758071 11.12268239 5.13514005 9.1875 4.6875 C8.10855469 4.44386719 7.02960938 4.20023437 5.91796875 3.94921875 C3.0552844 3.01798408 1.84602934 2.31239465 0 0 Z " fill="#E69135" transform="translate(103,72)"/>
<path d="M0 0 C0.99 0 1.98 0 3 0 C3 0.66 3 1.32 3 2 C3.66 2 4.32 2 5 2 C5.33 1.34 5.66 0.68 6 0 C6.66 0.33 7.32 0.66 8 1 C8.625 4.0625 8.625 4.0625 9 7 C8.01 7.33 7.02 7.66 6 8 C4.99403703 7.0479279 3.99538437 6.08812654 3 5.125 C2.443125 4.59132812 1.88625 4.05765625 1.3125 3.5078125 C0 2 0 2 0 0 Z " fill="#0B9161" transform="translate(39,184)"/>
<path d="M0 0 C0.66 0.33 1.32 0.66 2 1 C0.6875 3 0.6875 3 -1 5 C-1.99 5 -2.98 5 -4 5 C-4.33 6.32 -4.66 7.64 -5 9 C-5 8.34 -5 7.68 -5 7 C-5.99 7.33 -6.98 7.66 -8 8 C-8.99 8.33 -9.98 8.66 -11 9 C-11.33 8.01 -11.66 7.02 -12 6 C-11.34 6 -10.68 6 -10 6 C-9.67 5.01 -9.34 4.02 -9 3 C-8.1646875 3.37125 -8.1646875 3.37125 -7.3125 3.75 C-4.75949064 4.28353676 -4.75949064 4.28353676 -2.25 2.0625 C-1.5075 1.381875 -0.765 0.70125 0 0 Z " fill="#F58C10" transform="translate(765,79)"/>
<path d="M0 0 C0 3.07271487 -0.3113301 5.04351402 -2.125 7.5625 C-4.83226004 9.63806603 -7.72224195 10.19602161 -11 11 C-9.52202738 7.32943063 -7.52384523 5.58914217 -4.375 3.25 C-3.55773437 2.63640625 -2.74046875 2.0228125 -1.8984375 1.390625 C-0.95871094 0.70226562 -0.95871094 0.70226562 0 0 Z " fill="#DA6B3F" transform="translate(124,155)"/>
<path d="M0 0 C0.66 0.33 1.32 0.66 2 1 C1.50130596 6.36891879 0.97772468 11.69235173 0 17 C-0.99 16.67 -1.98 16.34 -3 16 C-2.52013969 10.43109483 -1.70084819 5.32932432 0 0 Z " fill="#5BA461" transform="translate(4,69)"/>
<path d="M0 0 C1.32 0.33 2.64 0.66 4 1 C4.33 2.32 4.66 3.64 5 5 C2.69 6.65 0.38 8.3 -2 10 C-2.66 9.67 -3.32 9.34 -4 9 C-3.2884375 7.88625 -3.2884375 7.88625 -2.5625 6.75 C-1.22130673 4.38949985 -0.487688 2.63351523 0 0 Z " fill="#44B14B" transform="translate(74,75)"/>
<path d="M0 0 C2.08343904 2.50012684 3.71433305 5.14195318 5.25 8 C5.60578125 8.66 5.9615625 9.32 6.328125 10 C7.13384316 12.39841683 6.81998065 13.64518377 6 16 C5.67 14.68 5.34 13.36 5 12 C4.34 12 3.68 12 3 12 C3 11.01 3 10.02 3 9 C2.01 8.67 1.02 8.34 0 8 C0 5.36 0 2.72 0 0 Z " fill="#DF833F" transform="translate(186,49)"/>
<path d="M0 0 C4.40035907 1.3038101 7.96040185 3.01273553 11.8125 5.5 C12.76769531 6.1084375 13.72289062 6.716875 14.70703125 7.34375 C17 9 17 9 18 11 C14.90447999 10.40392613 13.02035965 9.45266448 10.5625 7.5 C7.74200759 5.39070934 5.58205957 4.32564178 2 4 C2 3.34 2 2.68 2 2 C1.34 2 0.68 2 0 2 C0 1.34 0 0.68 0 0 Z " fill="#DE9541" transform="translate(142,9)"/>
<path d="M0 0 C2.12905975 7.46887895 1.57079975 14.15596715 -2 21 C-2.33 21 -2.66 21 -3 21 C-2.22095672 6.21867882 -2.22095672 6.21867882 0 0 Z " fill="#F08B1D" transform="translate(917,97)"/>
<path d="M0 0 C2.97 0 5.94 0 9 0 C9 0.66 9 1.32 9 2 C9.66 2.33 10.32 2.66 11 3 C8.58278807 4.52194825 7.26487742 5.01261321 4.375 4.875 C2 4 2 4 0 0 Z " fill="#0A8F63" transform="translate(46,192)"/>
<path d="M0 0 C1.32 0 2.64 0 4 0 C4 0.99 4 1.98 4 3 C3.34 3 2.68 3 2 3 C1.34 5.97 0.68 8.94 0 12 C-0.99 12 -1.98 12 -3 12 C-2.68950274 10.56206608 -2.3765224 9.1246682 -2.0625 7.6875 C-1.88847656 6.88699219 -1.71445313 6.08648437 -1.53515625 5.26171875 C-1 3 -1 3 0 0 Z " fill="#F85F1B" transform="translate(187,137)"/>
<path d="M0 0 C0.66 0.66 1.32 1.32 2 2 C2.99 2 3.98 2 5 2 C5 2.66 5 3.32 5 4 C5.66 4 6.32 4 7 4 C6 6 6 6 2.9375 7.125 C1.4834375 7.558125 1.4834375 7.558125 0 8 C-1 7 -1 7 -1.125 4 C-1 1 -1 1 0 0 Z " fill="#FA8615" transform="translate(161,23)"/>
<path d="M0 0 C0.90105469 0.00902344 1.80210938 0.01804688 2.73046875 0.02734375 C3.41753906 0.03894531 4.10460937 0.05054688 4.8125 0.0625 C5.4725 1.3825 6.1325 2.7025 6.8125 4.0625 C6.27109375 3.89878906 5.7296875 3.73507812 5.171875 3.56640625 C2.41027407 2.97659413 -0.11568139 2.96640692 -2.9375 3 C-3.92234375 3.00902344 -4.9071875 3.01804688 -5.921875 3.02734375 C-7.04335937 3.04474609 -7.04335937 3.04474609 -8.1875 3.0625 C-8.1875 2.4025 -8.1875 1.7425 -8.1875 1.0625 C-5.17259443 0.05753148 -3.14568308 -0.04085303 0 0 Z " fill="#8CBA57" transform="translate(89.1875,-0.0625)"/>
<path d="M0 0 C0.99 0.33 1.98 0.66 3 1 C-0.32307692 4.93846154 -0.32307692 4.93846154 -3.75 5.25 C-4.4925 5.1675 -5.235 5.085 -6 5 C-6 5.66 -6 6.32 -6 7 C-6.99 7 -7.98 7 -9 7 C-9 5.68 -9 4.36 -9 3 C-6.69 3 -4.38 3 -2 3 C-2 2.34 -2 1.68 -2 1 C-1.34 0.67 -0.68 0.34 0 0 Z " fill="#ED5926" transform="translate(146,197)"/>
<path d="M0 0 C0.33 0 0.66 0 1 0 C0.88608368 2.60508636 0.75934452 5.20845546 0.625 7.8125 C0.5940625 8.55048828 0.563125 9.28847656 0.53125 10.04882812 C0.32653852 13.81893115 0.13566173 15.79650741 -2 19 C-2.05451714 16.95863605 -2.09302485 14.91684144 -2.125 12.875 C-2.14820312 11.73804687 -2.17140625 10.60109375 -2.1953125 9.4296875 C-1.99672109 5.94242233 -1.2524801 3.2446138 0 0 Z " fill="#233440" transform="translate(84,97)"/>
<path d="M0 0 C1.38125018 2.76250036 1.19079306 4.94731099 1 8 C0.34 8.66 -0.32 9.32 -1 10 C-0.6814823 12.10820797 -0.6814823 12.10820797 0 14 C-0.99 14 -1.98 14 -3 14 C-2.91621094 13.30132812 -2.83242187 12.60265625 -2.74609375 11.8828125 C-2.64425781 10.97273438 -2.54242187 10.06265625 -2.4375 9.125 C-2.33308594 8.22007813 -2.22867187 7.31515625 -2.12109375 6.3828125 C-1.80325148 3.98346943 -1.80325148 3.98346943 -3 2 C-2.01 1.34 -1.02 0.68 0 0 Z " fill="#4AB24C" transform="translate(7,66)"/>
<path d="M0 0 C1.32 0 2.64 0 4 0 C4.66 3.3 5.32 6.6 6 10 C6.66 10 7.32 10 8 10 C7.67 10.99 7.34 11.98 7 13 C4.64283596 10.84545751 3.21033856 8.80280126 1.8125 5.9375 C1.29623047 4.89916016 1.29623047 4.89916016 0.76953125 3.83984375 C0 2 0 2 0 0 Z " fill="#319463" transform="translate(11,149)"/>
<path d="M0 0 C1.1446875 0.0928125 1.1446875 0.0928125 2.3125 0.1875 C-2.3125 5.0625 -2.3125 5.0625 -5.6875 6.1875 C-8.02049825 6.22704234 -10.35458189 6.23151732 -12.6875 6.1875 C-12.6875 5.8575 -12.6875 5.5275 -12.6875 5.1875 C-11.594375 4.919375 -10.50125 4.65125 -9.375 4.375 C-5.77947632 3.52664784 -5.77947632 3.52664784 -4.0625 1.5625 C-2.6875 0.1875 -2.6875 0.1875 0 0 Z " fill="#EE8C14" transform="translate(965.6875,128.8125)"/>
<path d="M0 0 C2.31 0.33 4.62 0.66 7 1 C7.33 2.65 7.66 4.3 8 6 C8.66 6 9.32 6 10 6 C9.67 6.99 9.34 7.98 9 9 C7.49704815 7.69088122 5.99770689 6.37761608 4.5 5.0625 C3.6646875 4.33160156 2.829375 3.60070312 1.96875 2.84765625 C1.3190625 2.23792969 0.669375 1.62820312 0 1 C0 0.67 0 0.34 0 0 Z " fill="#E48731" transform="translate(123,80)"/>
<path d="M0 0 C2.97 0.33 5.94 0.66 9 1 C9 1.99 9 2.98 9 4 C8.01 4 7.02 4 6 4 C6 3.34 6 2.68 6 2 C3.69 2.66 1.38 3.32 -1 4 C-0.67 2.68 -0.34 1.36 0 0 Z " fill="#FB9D0E" transform="translate(118,4)"/>
<path d="M0 0 C3.1166231 2.54996436 4.01692052 5.14330357 5 9 C5.125 12.375 5.125 12.375 5 15 C2.04816899 12.04816899 1.91336012 9.04488053 1 5 C0.01 5 -0.98 5 -2 5 C-1.34 3.35 -0.68 1.7 0 0 Z " fill="#EF8E1D" transform="translate(986,93)"/>
<path d="M0 0 C0.66 0.33 1.32 0.66 2 1 C2 2.32 2 3.64 2 5 C0.68 5 -0.64 5 -2 5 C-2 5.66 -2 6.32 -2 7 C-2.99 7 -3.98 7 -5 7 C-3.75023244 3.34683329 -3.32901247 2.21934164 0 0 Z " fill="#F8511C" transform="translate(110,209)"/>
<path d="M0 0 C3.3309303 -0.37010337 4.62731223 -0.27461204 7.375 1.75 C8.179375 2.86375 8.179375 2.86375 9 4 C8.6015625 6.140625 8.6015625 6.140625 8 8 C6.66372225 6.85760183 5.33104612 5.71098945 4 4.5625 C3.2575 3.92441406 2.515 3.28632813 1.75 2.62890625 C1.1725 2.09136719 0.595 1.55382812 0 1 C0 0.67 0 0.34 0 0 Z " fill="#1F8061" transform="translate(48,196)"/>
<path d="M0 0 C1.98 0.99 1.98 0.99 4 2 C4 4.97 4 7.94 4 11 C3.01 11.495 3.01 11.495 2 12 C1.93941406 11.38511719 1.87882812 10.77023438 1.81640625 10.13671875 C1.73261719 9.32847656 1.64882812 8.52023438 1.5625 7.6875 C1.48128906 6.88699219 1.40007812 6.08648437 1.31640625 5.26171875 C1.04734307 2.83912821 1.04734307 2.83912821 0 0 Z " fill="#2A363F" transform="translate(112,88)"/>
<path d="M0 0 C0.33 0 0.66 0 1 0 C1.44041451 5.28497409 1.44041451 5.28497409 1 8 C-1.5 10.5 -1.5 10.5 -4 12 C-3.52309796 10.37433394 -3.04340334 8.74948689 -2.5625 7.125 C-2.29566406 6.22007813 -2.02882813 5.31515625 -1.75390625 4.3828125 C-1 2 -1 2 0 0 Z " fill="#60AB5E" transform="translate(9,56)"/>
<path d="M0 0 C0.99 0.33 1.98 0.66 3 1 C2.34 1 1.68 1 1 1 C1.33 1.99 1.66 2.98 2 4 C1.34 4 0.68 4 0 4 C-0.66 5.32 -1.32 6.64 -2 8 C-2.33 8 -2.66 8 -3 8 C-3.1875 5.125 -3.1875 5.125 -3 2 C-2.01 1.34 -1.02 0.68 0 0 Z " fill="#52B547" transform="translate(13,54)"/>
<path d="M0 0 C0.33 0.66 0.66 1.32 1 2 C1.99 2.33 2.98 2.66 4 3 C3.67 5.31 3.34 7.62 3 10 C2.01 10 1.02 10 0 10 C0.185625 9.0925 0.37125 8.185 0.5625 7.25 C0.95734621 4.31685676 0.94691572 2.7355343 0 0 Z " fill="#5FBD41" transform="translate(36,21)"/>
<path d="M0 0 C1.32 0.33 2.64 0.66 4 1 C4 2.65 4 4.3 4 6 C3.01 6 2.02 6 1 6 C0.67 6.66 0.34 7.32 0 8 C0 5.36 0 2.72 0 0 Z " fill="#F85A19" transform="translate(160,176)"/>
<path d="M0 0 C0 3.97054597 -1.3139381 5.16471244 -4 8 C-6.25 8.8125 -6.25 8.8125 -8 9 C-7.25 6.0625 -7.25 6.0625 -6 3 C-4 2.25 -4 2.25 -2 2 C-1.34 1.34 -0.68 0.68 0 0 Z " fill="#F26126" transform="translate(131,151)"/>
<path d="M0 0 C2.88575819 0.39803561 3.82189513 0.79009069 5.75 3.0625 C6.1625 3.701875 6.575 4.34125 7 5 C1.25 5.125 1.25 5.125 -1 4 C-0.67 2.68 -0.34 1.36 0 0 Z " fill="#F29114" transform="translate(871,80)"/>
<path d="M0 0 C3.74787912 0.50452219 7.32636934 1.08159233 11 2 C6.545 3.485 6.545 3.485 2 5 C1.34 3.35 0.68 1.7 0 0 Z " fill="#56A759" transform="translate(77,74)"/>
<path d="M0 0 C0.99 1.32 1.98 2.64 3 4 C2.01 4.99 1.02 5.98 0 7 C0 6.34 0 5.68 0 5 C-1.65 5.33 -3.3 5.66 -5 6 C-3.35 4.02 -1.7 2.04 0 0 Z " fill="#70B459" transform="translate(35,22)"/>
<path d="M0 0 C1.65 0 3.3 0 5 0 C5 0.66 5 1.32 5 2 C5.66 2 6.32 2 7 2 C7.33 2.99 7.66 3.98 8 5 C6.35 5.33 4.7 5.66 3 6 C3 5.01 3 4.02 3 3 C1.56249809 1.31201173 1.56249809 1.31201173 0 0 Z " fill="#F5931B" transform="translate(137,9)"/>
<path d="M0 0 C1.98 0.99 1.98 0.99 4 2 C3.34 3.32 2.68 4.64 2 6 C2.66 6 3.32 6 4 6 C4 6.99 4 7.98 4 9 C3.01 9 2.02 9 1 9 C0.67 6.03 0.34 3.06 0 0 Z " fill="#1FA155" transform="translate(56,134)"/>
<path d="M0 0 C4.35535069 1.16142685 6.64619703 2.07699505 9 6 C7.35 5.67 5.7 5.34 4 5 C4 4.34 4 3.68 4 3 C2.68 2.67 1.36 2.34 0 2 C0 1.34 0 0.68 0 0 Z " fill="#F28D15" transform="translate(793,78)"/>
<path d="M0 0 C2.475 0.99 2.475 0.99 5 2 C4.34 3.65 3.68 5.3 3 7 C2.01 6.67 1.02 6.34 0 6 C0 4.02 0 2.04 0 0 Z " fill="#3EAE4B" transform="translate(67,80)"/>
<path d="M0 0 C0.99 0.33 1.98 0.66 3 1 C3 2.32 3 3.64 3 5 C1.125 5.625 1.125 5.625 -1 6 C-1.66 5.34 -2.32 4.68 -3 4 C-2.01 2.68 -1.02 1.36 0 0 Z " fill="#1BA153" transform="translate(13,144)"/>
<path d="M0 0 C0.33 0 0.66 0 1 0 C1 3.3 1 6.6 1 10 C0.01 10.33 -0.98 10.66 -2 11 C-2.24042276 6.91281305 -1.42258812 3.82320557 0 0 Z " fill="#172029" transform="translate(116,94)"/>
<path d="M0 0 C0.33 0 0.66 0 1 0 C1 2.31 1 4.62 1 7 C-0.65 7.66 -2.3 8.32 -4 9 C-3.625 6.5625 -3.625 6.5625 -3 4 C-2.34 3.67 -1.68 3.34 -1 3 C-0.67 2.01 -0.34 1.02 0 0 Z " fill="#43AE4F" transform="translate(4,81)"/>
<path d="M0 0 C2.91589609 4.37384413 4.30254716 7.70542471 4 13 C2 10 2 10 2 7 C1.34 7 0.68 7 0 7 C0 4.69 0 2.38 0 0 Z " fill="#D68041" transform="translate(193,65)"/>
<path d="M0 0 C0.99 0 1.98 0 3 0 C2.625 2.9375 2.625 2.9375 2 6 C1.01 6.495 1.01 6.495 0 7 C-0.66 6.34 -1.32 5.68 -2 5 C-1.34 3.35 -0.68 1.7 0 0 Z " fill="#F5481E" transform="translate(129,209)"/>
<path d="M0 0 C0.66 0.33 1.32 0.66 2 1 C0.87548273 3.9719385 -0.22293791 6.33440687 -2 9 C-2.66 9 -3.32 9 -4 9 C-2.80100302 5.9168649 -1.52299523 2.93720508 0 0 Z " fill="#29313A" transform="translate(115,133)"/>
<path d="M0 0 C0.78375 0.33 1.5675 0.66 2.375 1 C4.84332497 2.11866511 4.84332497 2.11866511 7 2 C7 4.31 7 6.62 7 9 C4.61327331 6.03716687 2.2646629 3.05729491 0 0 Z " fill="#E98D1F" transform="translate(871,98)"/>
<path d="M0 0 C0.66 0 1.32 0 2 0 C2 0.66 2 1.32 2 2 C2.99 2.33 3.98 2.66 5 3 C4.34 3.66 3.68 4.32 3 5 C3 4.34 3 3.68 3 3 C0.69 3.66 -1.62 4.32 -4 5 C-2.71937515 3.2925002 -1.38232443 1.62626404 0 0 Z " fill="#EE8B1C" transform="translate(1033,81)"/>
<path d="M0 0 C0.763125 0.20625 1.52625 0.4125 2.3125 0.625 C2.3125 1.285 2.3125 1.945 2.3125 2.625 C-0.29332371 3.55565133 -1.32948224 3.77417407 -3.9375 2.6875 C-4.515 2.336875 -5.0925 1.98625 -5.6875 1.625 C-2.6875 -0.375 -2.6875 -0.375 0 0 Z " fill="#068761" transform="translate(90.6875,225.375)"/>
<path d="M0 0 C0 3.57575896 -1.08840607 5.05295935 -3 8 C-4.32 7.67 -5.64 7.34 -7 7 C-4.69 4.69 -2.38 2.38 0 0 Z " fill="#74AE65" transform="translate(29,28)"/>
<path d="M0 0 C0 0.66 0 1.32 0 2 C-0.66 2 -1.32 2 -2 2 C-1.67 3.32 -1.34 4.64 -1 6 C-1.99 5.67 -2.98 5.34 -4 5 C-4 4.34 -4 3.68 -4 3 C-4.66 3 -5.32 3 -6 3 C-6 2.34 -6 1.68 -6 1 C-3.92446352 0.4465236 -2.15634036 0 0 0 Z " fill="#098B64" transform="translate(72,208)"/>
<path d="M0 0 C2.5 2.3125 2.5 2.3125 5 5 C5 5.99 5 6.98 5 8 C3.02 6.35 1.04 4.7 -1 3 C-0.67 2.01 -0.34 1.02 0 0 Z " fill="#E38E38" transform="translate(174,32)"/>
<path d="M0 0 C-2.97 2.475 -2.97 2.475 -6 5 C-6.66 4.67 -7.32 4.34 -8 4 C-5.97675095 -0.48005146 -4.79569304 -1.43870791 0 0 Z " fill="#D45F37" transform="translate(138,209)"/>
<path d="M0 0 C1.32 0 2.64 0 4 0 C4 0.99 4 1.98 4 3 C2.35 3.33 0.7 3.66 -1 4 C-0.67 2.68 -0.34 1.36 0 0 Z " fill="#1A9E5A" transform="translate(19,160)"/>
<path d="M0 0 C0.66 0.66 1.32 1.32 2 2 C0.4198632 4.15473199 -1.10646634 6.10646634 -3 8 C-3.75 6.25 -3.75 6.25 -4 4 C-2.0625 1.75 -2.0625 1.75 0 0 Z " fill="#F85C15" transform="translate(181,152)"/>
<path d="M0 0 C1.32 0 2.64 0 4 0 C4.33 2.31 4.66 4.62 5 7 C1.125 2.25 1.125 2.25 0 0 Z " fill="#E77F40" transform="translate(133,90)"/>
<path d="M0 0 C-2.97 2.475 -2.97 2.475 -6 5 C-6.66 4.67 -7.32 4.34 -8 4 C-7.25 2.0625 -7.25 2.0625 -6 0 C-3.40292416 -1.05506206 -2.5386068 -1.2693034 0 0 Z " fill="#4CA15A" transform="translate(78,80)"/>
<path d="M0 0 C0.7425 0.0825 1.485 0.165 2.25 0.25 C1.92 0.91 1.59 1.57 1.25 2.25 C0.59 2.25 -0.07 2.25 -0.75 2.25 C-1.08 2.91 -1.41 3.57 -1.75 4.25 C-3.4 4.25 -5.05 4.25 -6.75 4.25 C-3.42692308 0.31153846 -3.42692308 0.31153846 0 0 Z " fill="#4AB24B" transform="translate(85.75,71.75)"/>
<path d="M0 0 C1.32 0.33 2.64 0.66 4 1 C3.01 2.32 2.02 3.64 1 5 C0.01 4.67 -0.98 4.34 -2 4 C-1.34 2.68 -0.68 1.36 0 0 Z " fill="#F19412" transform="translate(715,62)"/>
<path d="M0 0 C0.66 1.32 1.32 2.64 2 4 C-1 6 -1 6 -4 7 C-3.67 5.68 -3.34 4.36 -3 3 C-2.01 3 -1.02 3 0 3 C0 2.01 0 1.02 0 0 Z " fill="#61B156" transform="translate(14,49)"/>
<path d="M0 0 C2.64 0.33 5.28 0.66 8 1 C8 1.66 8 2.32 8 3 C5.69 3 3.38 3 1 3 C0.67 2.01 0.34 1.02 0 0 Z " fill="#E5A93E" transform="translate(112,0)"/>
</svg>
